<?xml version="1.0" encoding="utf-8"?>
<!-- Generator: Adobe Illustrator 26.0.0, SVG Export Plug-In . SVG Version: 6.00 Build 0)  -->
<svg version="1.1" id="Layer_1" xmlns="http://www.w3.org/2000/svg" xmlns:xlink="http://www.w3.org/1999/xlink" x="0px" y="0px"
	 viewBox="0 0 72 72" style="enable-background:new 0 0 72 72;" xml:space="preserve">
<style type="text/css">
	.st0{fill:#151313;}
	.st1{fill:#0B0C0B;}
	.st2{fill:#020202;}
	.st3{fill:#E0E0E0;}
	.st4{fill:#FCE2DB;}
	.st5{fill:#263238;}
	.st6{fill:#151414;}
	.st7{fill:#455B64;}
	.st8{fill:#E82825;}
	.st9{fill:#F2CFC7;}
	.st10{fill:#6F453A;}
	.st11{opacity:0.3;}
	.st12{opacity:0.6;}
	.st13{fill:#FFFFFF;}
	.st14{fill:#F386B0;}
	.st15{fill:#B93160;}
</style>
<g>
	<g>
		<g>
			<polygon class="st0" points="22.56,48.08 21.79,54.1 22.98,54.1 25.1,48.08 			"/>
		</g>
		<g>
			<polygon class="st1" points="26.89,45.77 26.12,51.79 27.31,51.79 29.43,45.77 			"/>
		</g>
		<g>
			<polygon class="st2" points="42.92,48.08 43.76,54.1 42.46,54.1 40.15,48.08 			"/>
		</g>
		<g>
			<polygon class="st3" points="38.89,45.92 39.74,51.94 38.44,51.94 36.13,45.92 			"/>
		</g>
		<g>
			<g>
				<path class="st4" d="M26.11,25.93c0,0-3.24,0.21-5.41,1.24c-1.71,0.81-2.53,1.94-2.87,4.79c-0.33,2.85-2.51,3.43-2.57,4.41
					c-0.05,0.95,0.48,5.02,4.28,13.15c0.18,0.37,0.58,0.62,1.02,0.62h13.2V25.74L26.11,25.93z"/>
			</g>
			<g>
				<path class="st4" d="M38.69,25.93c0,0,3.24,0.21,5.41,1.24c1.71,0.81,2.53,1.94,2.87,4.79c0.33,2.85,2.51,3.43,2.57,4.41
					c0.05,0.95-0.48,5.04-4.32,13.24c-0.15,0.32-0.5,0.53-0.88,0.53h-13.3V25.74L38.69,25.93z"/>
			</g>
		</g>
		<g>
			<g>
				<path class="st5" d="M41.95,46.04c0,0,0.08-0.02,0.23-0.04c0.15-0.01,0.38-0.03,0.65,0.03c0.27,0.05,0.59,0.18,0.84,0.43
					c0.26,0.24,0.46,0.57,0.59,0.94c0.14,0.37,0.21,0.73,0.25,1.06c0.05,0.33,0.06,0.63,0.07,0.88c0.01,0.25,0.01,0.46,0,0.6
					c0,0.14-0.01,0.22-0.01,0.22c-0.01,0-0.01-0.08-0.02-0.22c-0.01-0.14-0.01-0.34-0.03-0.59c-0.02-0.25-0.04-0.55-0.09-0.88
					c-0.05-0.33-0.12-0.69-0.26-1.05c-0.13-0.36-0.32-0.68-0.57-0.92c-0.25-0.24-0.54-0.37-0.81-0.42
					C42.3,45.97,41.95,46.06,41.95,46.04z"/>
			</g>
		</g>
		<g>
			<g>
				<path class="st5" d="M43.27,42.57c0,0.02-4.9,0.04-10.94,0.04c-6.05,0-10.95-0.02-10.95-0.04c0-0.02,4.9-0.04,10.95-0.04
					C38.37,42.54,43.27,42.55,43.27,42.57z"/>
			</g>
		</g>
		<g>
			<g>
				<path class="st5" d="M22.35,45.87c0,0.01-0.08,0.01-0.23,0.02c-0.07,0-0.16,0.02-0.26,0.04c-0.05,0.01-0.1,0.03-0.16,0.04
					c-0.06,0.01-0.11,0.03-0.17,0.06c-0.24,0.09-0.5,0.25-0.71,0.49c-0.21,0.24-0.37,0.56-0.47,0.91c-0.1,0.35-0.14,0.7-0.15,1.01
					c-0.01,0.32,0,0.6,0.02,0.84c0.02,0.24,0.04,0.43,0.06,0.56c0.02,0.13,0.03,0.21,0.02,0.21c-0.01,0-0.03-0.07-0.05-0.2
					c-0.03-0.13-0.06-0.33-0.09-0.56c-0.03-0.24-0.04-0.53-0.03-0.85c0.01-0.32,0.05-0.67,0.15-1.03c0.1-0.36,0.27-0.69,0.49-0.94
					c0.22-0.25,0.5-0.41,0.75-0.49c0.06-0.02,0.12-0.04,0.18-0.05c0.06-0.01,0.11-0.03,0.16-0.03c0.1-0.01,0.19-0.03,0.27-0.03
					C22.27,45.86,22.35,45.86,22.35,45.87z"/>
			</g>
		</g>
		<g>
			<g>
				<path class="st5" d="M22.35,45.87c0,0-0.01-0.01-0.02-0.03c-0.01-0.03-0.02-0.06-0.04-0.1c-0.03-0.09-0.08-0.21-0.14-0.38
					c-0.11-0.33-0.26-0.82-0.43-1.42c-0.17-0.6-0.37-1.32-0.59-2.11c-0.22-0.79-0.47-1.67-0.77-2.57c-0.16-0.45-0.31-0.89-0.5-1.3
					c-0.04-0.1-0.1-0.2-0.15-0.3c-0.05-0.1-0.11-0.19-0.17-0.28c-0.12-0.19-0.23-0.37-0.34-0.54c-0.23-0.35-0.49-0.66-0.82-0.86
					c-0.32-0.2-0.68-0.3-1.01-0.35c-0.67-0.08-1.21,0.06-1.55,0.21c-0.34,0.15-0.5,0.28-0.5,0.27c0,0,0.01-0.01,0.03-0.02
					c0.02-0.02,0.05-0.04,0.09-0.07c0.08-0.05,0.2-0.13,0.37-0.21c0.34-0.15,0.89-0.31,1.57-0.23c0.34,0.04,0.7,0.14,1.04,0.35
					c0.34,0.21,0.61,0.52,0.84,0.87c0.12,0.18,0.23,0.36,0.35,0.54c0.06,0.09,0.12,0.19,0.17,0.29c0.06,0.1,0.11,0.2,0.16,0.3
					c0.2,0.41,0.35,0.85,0.5,1.31c0.3,0.91,0.55,1.78,0.77,2.58c0.22,0.79,0.41,1.51,0.57,2.11c0.16,0.6,0.3,1.09,0.4,1.42
					c0.05,0.17,0.09,0.3,0.12,0.38c0.01,0.04,0.02,0.07,0.03,0.1C22.35,45.85,22.35,45.87,22.35,45.87z"/>
			</g>
		</g>
		<g>
			<g>
				<path class="st5" d="M39.52,39.92c0,0-0.05,0-0.14,0c-0.09,0-0.22,0-0.4,0c-0.35,0-0.87,0-1.53,0c-1.33,0-3.25,0-5.63-0.01
					c-1.19,0-2.49,0-3.88-0.01c-0.7,0-1.42-0.01-2.16-0.01c-0.37,0-0.75,0-1.13,0.02c-0.09,0.01-0.19,0.01-0.28,0.03
					c-0.09,0.03-0.17,0.07-0.26,0.11c-0.17,0.08-0.34,0.18-0.5,0.27c-0.33,0.19-0.65,0.4-0.97,0.63c-0.32,0.22-0.63,0.46-0.92,0.73
					c-0.14,0.13-0.28,0.28-0.37,0.44c-0.02,0.04-0.03,0.08-0.04,0.12c0,0.03,0.02,0.09,0.03,0.13l0.07,0.28
					c0.1,0.37,0.21,0.75,0.32,1.13c0.11,0.38,0.22,0.76,0.34,1.15c0.06,0.19,0.12,0.38,0.18,0.58c0.03,0.1,0.06,0.19,0.1,0.29
					c0,0.01,0.01,0.02,0.01,0.03c0,0,0,0.01,0,0.01c0,0,0,0,0,0c0.03,0,0.05,0.01,0.08,0.01c0.05,0.01,0.11,0.01,0.16,0.01
					c0.88,0.04,1.78,0.05,2.68,0.06c3.62,0.04,7.08,0.04,10.22,0.04c1.57,0,3.06-0.01,4.46-0.03c0.7-0.01,1.37-0.02,2.02-0.04
					c0.16-0.01,0.32-0.01,0.48-0.02c0.04,0,0.08-0.01,0.12-0.01c0.02,0,0.04-0.01,0.06-0.01c0.02,0,0.02-0.01,0.04-0.02
					c0.05-0.04,0.08-0.11,0.11-0.18c0.11-0.26,0.19-0.53,0.26-0.8c0.15-0.53,0.26-1.04,0.37-1.52c0.03-0.12,0.05-0.24,0.08-0.36
					c0.02-0.12,0.07-0.23,0.05-0.34c-0.03-0.22-0.18-0.41-0.33-0.58c-0.31-0.33-0.65-0.58-0.97-0.81c-0.32-0.23-0.62-0.43-0.88-0.61
					c-0.27-0.18-0.49-0.36-0.72-0.46c-0.23-0.11-0.44-0.16-0.61-0.2c-0.17-0.03-0.3-0.05-0.39-0.05c-0.04,0-0.08,0-0.1,0
					C39.54,39.92,39.52,39.92,39.52,39.92s0.05,0,0.14,0c0.09,0,0.22,0.01,0.4,0.04c0.17,0.03,0.38,0.09,0.61,0.19
					c0.23,0.1,0.46,0.28,0.73,0.45c0.27,0.18,0.57,0.38,0.89,0.6c0.32,0.23,0.66,0.48,0.98,0.81c0.15,0.17,0.31,0.36,0.34,0.6
					c0.01,0.12-0.03,0.24-0.05,0.35c-0.03,0.12-0.05,0.24-0.08,0.36c-0.11,0.48-0.22,0.99-0.37,1.52c-0.07,0.26-0.15,0.54-0.26,0.81
					c-0.03,0.07-0.06,0.13-0.12,0.2c-0.01,0.01-0.04,0.03-0.06,0.03c-0.02,0-0.04,0.01-0.06,0.01c-0.04,0-0.08,0.01-0.12,0.01
					c-0.16,0.01-0.32,0.02-0.48,0.02c-0.65,0.02-1.32,0.03-2.02,0.05c-1.4,0.02-2.89,0.03-4.46,0.04
					c-3.14,0.01-6.59,0.01-10.22-0.03c-0.91-0.01-1.8-0.02-2.68-0.06c-0.06,0-0.11-0.01-0.17-0.01c-0.03,0-0.06-0.01-0.09-0.01
					c-0.01,0-0.03-0.01-0.04-0.01c-0.01-0.01-0.01-0.01-0.02-0.02c-0.01-0.01-0.02-0.03-0.02-0.04c-0.04-0.1-0.07-0.19-0.1-0.29
					c-0.06-0.19-0.12-0.39-0.18-0.58c-0.11-0.39-0.23-0.77-0.34-1.15c-0.11-0.38-0.21-0.76-0.32-1.13l-0.07-0.28
					c-0.01-0.05-0.03-0.09-0.03-0.15c0-0.06,0.02-0.11,0.04-0.15c0.1-0.18,0.24-0.32,0.38-0.46c0.29-0.27,0.61-0.51,0.93-0.73
					c0.32-0.22,0.65-0.44,0.98-0.63c0.17-0.1,0.33-0.19,0.51-0.28c0.09-0.04,0.17-0.08,0.27-0.11c0.11-0.02,0.2-0.02,0.29-0.03
					c0.38-0.02,0.76-0.02,1.13-0.02c0.74,0.01,1.47,0.01,2.16,0.02c1.4,0.01,2.7,0.01,3.88,0.02c2.37,0.01,4.29,0.02,5.63,0.03
					c0.66,0,1.18,0.01,1.53,0.01c0.17,0,0.31,0,0.4,0C39.48,39.91,39.52,39.92,39.52,39.92z"/>
			</g>
		</g>
		<g>
			<g>
				<path class="st5" d="M42.8,45.87c0,0,0-0.01,0.01-0.03c0.01-0.03,0.02-0.06,0.03-0.1c0.03-0.09,0.07-0.21,0.11-0.38
					c0.1-0.33,0.21-0.82,0.35-1.42c0.13-0.61,0.29-1.33,0.46-2.12c0.18-0.8,0.37-1.68,0.63-2.59c0.14-0.45,0.28-0.9,0.46-1.31
					c0.05-0.1,0.11-0.2,0.16-0.3c0.06-0.1,0.12-0.19,0.18-0.28c0.12-0.18,0.26-0.35,0.4-0.51c0.28-0.32,0.59-0.59,0.93-0.79
					c0.34-0.19,0.7-0.3,1.04-0.34c0.68-0.08,1.22,0.08,1.56,0.23c0.17,0.08,0.29,0.15,0.37,0.21c0.04,0.03,0.06,0.05,0.09,0.07
					c0.02,0.01,0.03,0.02,0.03,0.02c-0.01,0.01-0.16-0.13-0.5-0.27c-0.33-0.14-0.88-0.29-1.54-0.21c-0.33,0.04-0.68,0.15-1.01,0.34
					c-0.33,0.19-0.64,0.46-0.91,0.78c-0.14,0.16-0.27,0.33-0.39,0.51c-0.06,0.09-0.12,0.18-0.18,0.28c-0.05,0.1-0.11,0.19-0.16,0.29
					c-0.18,0.41-0.32,0.85-0.46,1.3c-0.26,0.91-0.46,1.79-0.64,2.58c-0.18,0.8-0.34,1.52-0.48,2.12c-0.14,0.6-0.26,1.09-0.37,1.42
					c-0.05,0.17-0.1,0.29-0.13,0.38c-0.02,0.04-0.03,0.07-0.04,0.1C42.8,45.86,42.8,45.87,42.8,45.87z"/>
			</g>
		</g>
		<g>
			<g>
				<path class="st5" d="M43.15,27.94c0.02,0-0.67,2.69-1.54,6c-0.87,3.31-1.6,5.99-1.62,5.98c-0.02,0,0.67-2.69,1.54-6
					C42.4,30.62,43.13,27.94,43.15,27.94z"/>
			</g>
		</g>
		<g>
			<g>
				<path class="st6" d="M21.48,28.8c0,0,0.02,0.04,0.04,0.11c0.03,0.08,0.06,0.19,0.11,0.32c0.09,0.29,0.22,0.69,0.38,1.18
					c0.32,1,0.75,2.39,1.21,3.92c0.46,1.54,0.86,2.93,1.15,3.94c0.14,0.5,0.25,0.91,0.33,1.2c0.04,0.14,0.06,0.25,0.09,0.33
					c0.02,0.07,0.03,0.11,0.02,0.12c0,0-0.02-0.04-0.04-0.11c-0.02-0.08-0.06-0.19-0.1-0.32c-0.09-0.29-0.21-0.69-0.35-1.19
					c-0.3-1.01-0.71-2.4-1.17-3.93c-0.46-1.53-0.88-2.92-1.19-3.93c-0.15-0.5-0.27-0.9-0.36-1.19c-0.04-0.14-0.07-0.24-0.09-0.32
					C21.48,28.84,21.48,28.8,21.48,28.8z"/>
			</g>
		</g>
	</g>
	<g>
		<g>
			<g>
				<g>
					<path class="st5" d="M27.39,12.63c0.02-0.4,0.42-0.76,0.85-0.78c-0.26-0.39-0.04-0.95,0.39-1.16c0.44-0.21,1.01-0.1,1.38,0.2
						c0.22-0.33,0.69-0.5,1.09-0.39c0.4,0.11,0.7,0.49,0.68,0.87c0.4-0.12,0.85,0.19,0.93,0.57c0.08,0.38-0.15,0.78-0.5,1
						c0.21,0.14,0.18,0.45,0.02,0.63c-0.17,0.18-0.43,0.25-0.68,0.3l-1.6,0.44c-0.38,0.2-0.85,0.3-1.26,0.15
						c-0.41-0.14-0.7-0.59-0.55-0.97C27.71,13.43,27.37,13.03,27.39,12.63z"/>
				</g>
				<g>
					<g>
						<path class="st7" d="M27.41,12.46c0,0,0.02-0.02,0.06-0.05c0.04-0.03,0.11-0.07,0.2-0.09c0.09-0.03,0.22-0.04,0.36-0.01
							c0.14,0.02,0.3,0.09,0.41,0.22l-0.05,0.01c0.01-0.18,0.09-0.37,0.25-0.53c0.16-0.16,0.38-0.29,0.64-0.34
							c0.26-0.05,0.55-0.02,0.82,0.08c0.27,0.1,0.52,0.27,0.73,0.48c0.1,0.1,0.18,0.22,0.22,0.35c0.04,0.13,0.02,0.28-0.06,0.39
							c-0.04,0.06-0.1,0.1-0.17,0.13c-0.07,0.03-0.15,0.04-0.22,0.02c-0.14-0.04-0.25-0.15-0.28-0.27c-0.04-0.12,0-0.25,0.07-0.35
							c0.07-0.1,0.17-0.17,0.28-0.21c0.22-0.08,0.44-0.08,0.62-0.05c0.38,0.07,0.64,0.25,0.78,0.4c0.07,0.07,0.12,0.14,0.15,0.18
							c0.03,0.04,0.04,0.07,0.04,0.07c-0.01,0-0.06-0.09-0.21-0.23c-0.15-0.13-0.4-0.31-0.77-0.36c-0.18-0.03-0.39-0.03-0.59,0.05
							c-0.1,0.04-0.18,0.1-0.24,0.19c-0.06,0.08-0.09,0.19-0.06,0.29c0.03,0.1,0.12,0.19,0.23,0.22c0.11,0.03,0.23-0.03,0.3-0.12
							c0.07-0.1,0.09-0.22,0.05-0.34c-0.04-0.12-0.11-0.22-0.21-0.32c-0.39-0.4-0.97-0.64-1.47-0.54c-0.25,0.05-0.46,0.17-0.61,0.31
							c-0.15,0.15-0.23,0.33-0.25,0.5l-0.01,0.06l-0.04-0.05c-0.1-0.12-0.25-0.19-0.38-0.22c-0.13-0.03-0.25-0.02-0.34,0
							C27.49,12.39,27.41,12.47,27.41,12.46z"/>
					</g>
				</g>
				<g>
					<g>
						<path class="st5" d="M28.89,13.98c0,0,0,0.01-0.02,0.04c-0.01,0.02-0.04,0.06-0.08,0.09c-0.04,0.03-0.11,0.06-0.19,0.08
							c-0.08,0.01-0.18,0.01-0.27-0.04l-0.15-0.08l0.16,0.05c0.05,0.02,0.11,0.03,0.17,0.05l0.21,0.06l-0.22-0.02
							c-0.13-0.01-0.28-0.09-0.35-0.22c-0.07-0.14-0.05-0.33,0.08-0.45l0.05,0.04c-0.17,0.23-0.5,0.38-0.85,0.36
							c-0.35-0.02-0.69-0.27-0.81-0.61c-0.08-0.23-0.07-0.48,0.06-0.68c0.12-0.2,0.43-0.3,0.64-0.17l-0.04,0.05
							c-0.14-0.11-0.21-0.27-0.22-0.42c-0.01-0.15,0.02-0.3,0.1-0.41c0.08-0.11,0.2-0.2,0.32-0.23c0.12-0.04,0.24-0.04,0.35-0.02
							c0.21,0.04,0.34,0.14,0.41,0.22c0.07,0.08,0.08,0.14,0.08,0.14c-0.01,0-0.03-0.05-0.1-0.13c-0.07-0.07-0.2-0.17-0.4-0.2
							c-0.1-0.01-0.21-0.01-0.32,0.02c-0.11,0.03-0.21,0.11-0.28,0.21c-0.07,0.11-0.1,0.24-0.09,0.38c0.01,0.14,0.08,0.28,0.2,0.37
							l-0.04,0.05c-0.17-0.1-0.42-0.02-0.53,0.15c-0.12,0.17-0.13,0.41-0.05,0.62c0.11,0.31,0.41,0.54,0.74,0.56
							c0.32,0.03,0.63-0.11,0.79-0.32l0.05,0.04c-0.11,0.1-0.14,0.27-0.08,0.39c0.06,0.12,0.19,0.19,0.31,0.2l-0.01,0.04
							c-0.06-0.02-0.12-0.04-0.17-0.05l0.02-0.04c0.08,0.05,0.17,0.06,0.24,0.05c0.07-0.01,0.13-0.04,0.18-0.06
							C28.86,14.03,28.88,13.97,28.89,13.98z"/>
					</g>
				</g>
				<g>
					<g>
						<path class="st5" d="M33.41,13.11c-0.01-0.01,0.06-0.06,0.13-0.18c0.07-0.12,0.15-0.33,0.09-0.57
							c-0.05-0.24-0.27-0.51-0.62-0.6c-0.08-0.02-0.18-0.03-0.27-0.03c-0.09,0-0.18,0.03-0.23,0.09c-0.05,0.06-0.04,0.15,0.04,0.18
							c0.08,0.03,0.18,0.01,0.28-0.02c0.19-0.07,0.34-0.2,0.41-0.36c0.08-0.16,0.05-0.34-0.04-0.48c-0.17-0.29-0.52-0.41-0.78-0.41
							c-0.27,0-0.48,0.11-0.59,0.2c-0.12,0.09-0.16,0.16-0.17,0.15c0,0,0.01-0.02,0.03-0.05c0.02-0.03,0.06-0.08,0.12-0.13
							c0.11-0.1,0.32-0.22,0.61-0.23c0.14,0,0.3,0.02,0.45,0.09c0.15,0.07,0.3,0.18,0.39,0.34c0.09,0.15,0.13,0.36,0.05,0.54
							c-0.08,0.18-0.25,0.33-0.46,0.4c-0.1,0.04-0.22,0.06-0.34,0.02c-0.06-0.02-0.11-0.07-0.12-0.13
							c-0.01-0.06,0.01-0.11,0.04-0.16c0.07-0.09,0.19-0.12,0.29-0.12c0.1,0,0.2,0.01,0.29,0.03c0.37,0.1,0.61,0.39,0.65,0.65
							c0.05,0.26-0.04,0.48-0.12,0.6c-0.04,0.06-0.08,0.1-0.11,0.13C33.43,13.1,33.42,13.12,33.41,13.11z"/>
					</g>
				</g>
			</g>
			<g>
				<path class="st8" d="M28.62,14.29c0.18-0.32,0.68-0.36,1.03-0.22c-0.03-0.24,0.1-0.5,0.33-0.63c0.23-0.13,0.54-0.12,0.76,0.02
					c0.09,0.05,0.17,0.13,0.27,0.12c0.11-0.01,0.18-0.1,0.26-0.17c0.28-0.25,0.79-0.22,1.04,0.05c0.25,0.27,0.19,0.74-0.13,0.95
					l-0.05-0.17c-0.6,0.52-1.37,0.87-2.18,0.98c-0.34,0.05-0.71,0.05-1.01-0.12C28.64,14.94,28.46,14.57,28.62,14.29z"/>
			</g>
			<g>
				<path class="st5" d="M27.74,17.08c-0.3-0.4-0.27-0.98,0.06-1.36c0.13-0.15,0.3-0.26,0.49-0.33c0.03-0.3,0.13-0.6,0.35-0.82
					c0.32-0.33,0.93-0.44,1.28-0.14c0.26-0.52,1.06-0.75,1.59-0.45c0.46-0.49,1.43-0.46,1.85,0.06c0.27-0.17,0.66-0.18,0.94-0.01
					c0.28,0.16,0.44,0.49,0.39,0.79c0.32-0.05,0.67,0.07,0.88,0.31c0.21,0.23,0.27,0.57,0.15,0.85c0.27,0.01,0.53,0.19,0.62,0.43
					c0.09,0.24,0,0.52-0.21,0.69c0.36,0.38,0.25,1.04-0.21,1.3c0.09,0.36-0.16,0.76-0.55,0.87l-5.72,1.57
					c-0.96-0.06-1.22-0.64-1.26-1.17c-0.23-0.08-0.42-0.24-0.52-0.45c-0.1-0.22-0.09-0.49,0.04-0.7c-0.26-0.15-0.43-0.4-0.46-0.68
					C27.41,17.56,27.52,17.27,27.74,17.08z"/>
			</g>
			<g>
				<g>
					<path class="st9" d="M29.98,15.9l3.51-0.72c1.12-0.08,1.82,1.21,1.86,2.24c0.04,1.15,0.04,2.55-0.13,3.4
						c-0.35,1.71-1.79,1.89-1.79,1.89c0-0.01-0.01,0.03-0.03,0.54l-0.03,0.83c-0.01,0.33-0.13,0.66-0.37,0.91
						c-0.55,0.57-1.48,0.6-2.55,0.16c-0.62-0.26-0.58-0.58-0.65-1.37l-0.5-7.48C29.37,16.18,29.64,15.92,29.98,15.9z"/>
				</g>
				<g>
					<g>
						<g>
							<path class="st5" d="M34.61,18.97c0,0.12-0.11,0.21-0.24,0.22c-0.13,0-0.24-0.09-0.24-0.21c0-0.12,0.11-0.21,0.24-0.22
								C34.5,18.76,34.61,18.85,34.61,18.97z"/>
						</g>
					</g>
				</g>
				<g>
					<g>
						<g>
							<path class="st5" d="M34.91,18.3c-0.03,0.03-0.21-0.1-0.47-0.11c-0.26-0.01-0.45,0.11-0.48,0.08
								c-0.01-0.01,0.02-0.06,0.1-0.12c0.08-0.05,0.22-0.1,0.38-0.1c0.16,0.01,0.29,0.06,0.37,0.12
								C34.9,18.23,34.92,18.28,34.91,18.3z"/>
						</g>
					</g>
				</g>
				<g>
					<g>
						<g>
							<path class="st5" d="M32.38,18.9c0,0.12-0.11,0.21-0.24,0.22c-0.13,0-0.24-0.09-0.24-0.21c0-0.12,0.11-0.21,0.24-0.22
								C32.27,18.69,32.37,18.78,32.38,18.9z"/>
						</g>
					</g>
				</g>
				<g>
					<g>
						<g>
							<path class="st5" d="M32.47,18.3c-0.03,0.03-0.21-0.1-0.47-0.11c-0.26-0.01-0.45,0.11-0.48,0.08
								c-0.01-0.01,0.02-0.06,0.1-0.12c0.08-0.05,0.22-0.1,0.38-0.1c0.16,0.01,0.29,0.06,0.37,0.12
								C32.46,18.23,32.49,18.28,32.47,18.3z"/>
						</g>
					</g>
				</g>
				<g>
					<g>
						<g>
							<path class="st5" d="M33.2,19.89c0-0.01,0.16-0.03,0.42-0.06c0.07,0,0.13-0.01,0.14-0.06c0.02-0.04-0.01-0.11-0.04-0.18
								c-0.06-0.15-0.12-0.3-0.18-0.47c-0.25-0.66-0.43-1.21-0.4-1.22c0.03-0.01,0.25,0.52,0.5,1.19c0.06,0.16,0.12,0.32,0.17,0.47
								c0.02,0.07,0.06,0.15,0.03,0.24c-0.02,0.04-0.07,0.08-0.11,0.09c-0.04,0.01-0.08,0.01-0.11,0.01
								C33.36,19.9,33.2,19.9,33.2,19.89z"/>
						</g>
					</g>
				</g>
				<g>
					<g>
						<g>
							<path class="st9" d="M33.43,22.71c0,0-1.26,0.04-2.48-0.68c0,0,0.58,1.22,2.45,1.11L33.43,22.71z"/>
						</g>
					</g>
				</g>
				<g>
					<g>
						<path class="st10" d="M32.33,20.36c0.07-0.1,0.19-0.15,0.32-0.15c0.18,0,0.33,0.06,0.44,0.21c0.04,0.04,0.03,0.17,0.01,0.2
							c-0.02,0.03,0,0.02-0.03,0.04c-0.11,0.08-0.22,0.16-0.35,0.19c-0.13,0.03-0.3-0.02-0.38-0.14
							C32.25,20.61,32.26,20.46,32.33,20.36z"/>
					</g>
				</g>
				<g>
					<g>
						<g>
							<path class="st5" d="M32.39,20.04c0.04,0,0.04,0.26,0.27,0.44c0.23,0.19,0.53,0.17,0.53,0.2c0,0.02-0.07,0.05-0.19,0.05
								c-0.12,0-0.3-0.04-0.45-0.15c-0.14-0.12-0.2-0.27-0.21-0.37C32.34,20.1,32.37,20.03,32.39,20.04z"/>
						</g>
					</g>
				</g>
				<g>
					<g>
						<g>
							<path class="st5" d="M32.51,17.26c-0.02,0.07-0.28,0.04-0.58,0.08c-0.3,0.04-0.54,0.12-0.59,0.07
								c-0.02-0.03,0.02-0.09,0.12-0.15c0.1-0.06,0.25-0.13,0.43-0.15c0.18-0.02,0.35,0,0.46,0.04
								C32.46,17.18,32.52,17.23,32.51,17.26z"/>
						</g>
					</g>
				</g>
				<g>
					<g>
						<g>
							<path class="st5" d="M34.86,17.45c-0.05,0.05-0.25-0.01-0.49-0.03c-0.24-0.02-0.44,0.01-0.49-0.04
								c-0.02-0.03,0.02-0.08,0.11-0.13c0.09-0.05,0.24-0.08,0.4-0.07c0.16,0.01,0.3,0.07,0.38,0.13
								C34.86,17.37,34.88,17.43,34.86,17.45z"/>
						</g>
					</g>
				</g>
				<g>
					<path class="st5" d="M33.51,14.99c0,0.01,0,0.03,0.01,0.04l-0.01,0C33.51,15.02,33.51,15.01,33.51,14.99z"/>
				</g>
			</g>
			<g>
				<g>
					<path class="st9" d="M29.79,18.96c0.01-0.11-0.07-0.21-0.19-0.23c-0.3-0.06-0.84-0.06-0.89,0.64c-0.07,0.97,1,0.83,1,0.81
						C29.72,20.15,29.77,19.33,29.79,18.96z"/>
				</g>
			</g>
			<g>
				<g>
					<path class="st10" d="M29.42,19.79c0,0-0.02,0.01-0.05,0.02c-0.03,0.01-0.08,0.02-0.14-0.01c-0.11-0.04-0.19-0.21-0.18-0.39
						c0-0.09,0.03-0.17,0.07-0.24c0.04-0.07,0.09-0.11,0.15-0.12c0.06-0.01,0.09,0.03,0.1,0.05c0.01,0.03,0,0.05,0.01,0.05
						c0,0,0.02-0.01,0.02-0.06c0-0.02-0.01-0.04-0.04-0.06c-0.02-0.02-0.06-0.03-0.1-0.03c-0.08,0-0.16,0.06-0.2,0.14
						c-0.05,0.07-0.08,0.17-0.08,0.27c-0.01,0.2,0.09,0.38,0.24,0.43c0.07,0.02,0.14,0.01,0.17-0.01
						C29.42,19.81,29.42,19.79,29.42,19.79z"/>
				</g>
			</g>
			<g>
				<path class="st5" d="M35.72,17.99c-0.2,0-0.39-0.08-0.52-0.22c-0.12-0.14-0.18-0.33-0.14-0.51c-0.21,0-0.42-0.09-0.55-0.24
					c-0.13-0.15-0.17-0.36-0.12-0.55c-0.23,0.1-0.51,0.1-0.73,0c-0.23-0.1-0.4-0.3-0.46-0.53c0,0.08-0.06,0.15-0.13,0.19
					c-0.07,0.04-0.16,0.05-0.25,0.04c-0.28-0.02-0.54-0.19-0.65-0.42c-0.17,0.26-0.56,0.38-0.87,0.26c-0.11-0.04-0.22-0.14-0.2-0.25
					c0.01-0.04,0.03-0.08,0.05-0.11c0.32-0.44,0.9-0.69,1.47-0.74c0.58-0.05,1.15,0.08,1.7,0.25c0.32,0.1,0.65,0.22,0.89,0.44
					c0.26,0.24,0.39,0.57,0.52,0.88c0.09,0.23,0.18,0.46,0.23,0.71c0.04,0.24,0.03,0.5-0.08,0.72c-0.02,0-0.05,0-0.07,0.01"/>
			</g>
			<g>
				<path class="st5" d="M31.3,15.74c0,0.41-0.37,0.8-0.81,0.86c0.23,0.08,0.36,0.33,0.3,0.55c-0.07,0.21-0.33,0.36-0.57,0.32
					c0.06,0.14,0.13,0.29,0.12,0.44c0,0.15-0.1,0.31-0.25,0.36c0.08,0.09,0.17,0.23,0.12,0.38c-0.04,0.11-0.14,0.28-0.38,0.28
					c-0.16,0-0.28-0.17-0.43-0.2c-0.23-0.04-0.48,0.03-0.64,0.18l-0.19-1.8l0.24-1.44l0.92-0.62l1.77,0.29L31.3,15.74z"/>
			</g>
			<g>
				<g>
					<path class="st7" d="M28.36,15.79c0-0.01,0.07,0.01,0.19-0.02c0.11-0.03,0.28-0.11,0.35-0.28l0.04-0.11l0.02,0.11
						c0.02,0.12,0.09,0.26,0.23,0.35c0.13,0.1,0.32,0.14,0.5,0.09c0.12-0.03,0.22-0.09,0.29-0.16l0.03-0.04l0.03,0.04
						c0.1,0.15,0.25,0.25,0.4,0.3c0.15,0.05,0.3,0.05,0.41,0.03c0.24-0.04,0.35-0.14,0.36-0.13c0,0-0.02,0.03-0.08,0.07
						c-0.06,0.04-0.15,0.08-0.27,0.11c-0.12,0.03-0.28,0.03-0.45-0.02c-0.16-0.05-0.33-0.16-0.44-0.32l0.06,0
						c-0.08,0.09-0.2,0.15-0.33,0.19c-0.2,0.05-0.42,0-0.56-0.11c-0.15-0.11-0.23-0.26-0.24-0.4l0.06,0.01
						c-0.09,0.2-0.28,0.28-0.4,0.3C28.43,15.82,28.36,15.79,28.36,15.79z"/>
				</g>
			</g>
			<g>
				<g>
					<path class="st7" d="M31.12,13.9c0.01,0.01-0.17,0.05-0.39,0.2c-0.11,0.07-0.22,0.18-0.29,0.33c-0.07,0.15-0.05,0.34,0.08,0.48
						c0.04,0.04,0.1,0.08,0.15,0.1l0.05,0.02l-0.03,0.04c-0.09,0.13-0.07,0.3-0.01,0.43c0.06,0.13,0.17,0.22,0.26,0.28
						c0.19,0.13,0.31,0.2,0.31,0.21c0,0-0.04-0.01-0.1-0.04c-0.06-0.03-0.14-0.07-0.24-0.13c-0.1-0.06-0.21-0.16-0.29-0.3
						c-0.07-0.13-0.11-0.33,0.01-0.49l0.02,0.05c-0.07-0.02-0.13-0.06-0.19-0.12c-0.16-0.16-0.17-0.39-0.09-0.55
						c0.07-0.17,0.2-0.28,0.32-0.35c0.12-0.07,0.23-0.11,0.3-0.13C31.07,13.9,31.11,13.9,31.12,13.9z"/>
				</g>
			</g>
			<g>
				<g>
					<path class="st5" d="M36.81,19.67c0,0-0.01,0.01-0.04,0.02c-0.03,0.01-0.06,0.02-0.12,0.02c-0.1,0.01-0.26-0.01-0.42-0.11
						c-0.16-0.1-0.26-0.33-0.19-0.56c0.03-0.11,0.1-0.23,0.22-0.3c0.06-0.04,0.13-0.07,0.21-0.07c0.08,0,0.16,0.03,0.21,0.09
						c0.05,0.06,0.05,0.15,0.01,0.22c-0.03,0.06-0.09,0.11-0.15,0.15c-0.13,0.06-0.27,0.07-0.39,0.05
						c-0.12-0.02-0.23-0.08-0.31-0.15c-0.08-0.07-0.14-0.16-0.17-0.24c-0.07-0.16-0.06-0.31-0.04-0.4c0.02-0.09,0.04-0.14,0.05-0.14
						c0.01,0-0.01,0.05-0.02,0.14c-0.01,0.09-0.01,0.23,0.06,0.38c0.03,0.07,0.09,0.15,0.16,0.21c0.08,0.06,0.17,0.11,0.29,0.13
						c0.11,0.02,0.23,0.01,0.34-0.04c0.1-0.05,0.18-0.17,0.11-0.26c-0.03-0.04-0.09-0.06-0.15-0.06c-0.06,0-0.11,0.02-0.16,0.05
						c-0.1,0.06-0.16,0.16-0.19,0.26c-0.06,0.2,0.02,0.4,0.16,0.5c0.13,0.1,0.28,0.13,0.38,0.12
						C36.76,19.68,36.81,19.66,36.81,19.67z"/>
				</g>
			</g>
			<g>
				<g>
					<path class="st5" d="M28.55,18.45c0,0-0.04,0.03-0.14,0.07c-0.09,0.03-0.24,0.07-0.41,0.07c-0.18,0-0.39-0.02-0.61-0.11
						c-0.11-0.04-0.22-0.13-0.27-0.25c-0.02-0.06-0.03-0.13,0-0.2c0.03-0.06,0.09-0.12,0.16-0.14c0.04-0.02,0.09-0.02,0.14,0
						l-0.03,0.07c-0.25-0.11-0.36-0.37-0.34-0.58c0.01-0.11,0.06-0.2,0.12-0.28c0.07-0.07,0.15-0.12,0.22-0.15
						c0.16-0.06,0.3-0.06,0.39-0.04c0.09,0.02,0.13,0.05,0.13,0.05c0,0.01-0.05-0.02-0.14-0.03c-0.09-0.01-0.22-0.01-0.36,0.06
						c-0.14,0.06-0.29,0.2-0.3,0.39c-0.02,0.19,0.09,0.41,0.31,0.51l-0.03,0.07c-0.03-0.01-0.06-0.01-0.09,0
						c-0.05,0.02-0.1,0.06-0.12,0.1c-0.02,0.04-0.02,0.1,0,0.15c0.04,0.1,0.13,0.17,0.23,0.21c0.2,0.08,0.42,0.11,0.58,0.11
						C28.35,18.55,28.55,18.44,28.55,18.45z"/>
				</g>
			</g>
		</g>
	</g>
	<g>
		<path class="st9" d="M35.77,31.39c0.05,0.07,1.74,2.15,1.74,2.15l2.04-1.75l-1.31-3.03l-0.78-1.24L35.77,31.39z"/>
	</g>
	<g class="st11">
		<polygon points="29.12,50.13 28.26,50.11 27.96,43.3 26.11,42.57 29.47,40.67 38.45,46.5 40.24,50.13 		"/>
	</g>
	<g>
		<g>
			<path class="st9" d="M35.03,47.79c-0.01,0,1.58,2.76,1.58,2.76l2.35-1.21l-1.03-3.01L35.03,47.79z"/>
		</g>
		<g>
			<g>
				<g>
					<g>
						<g>
							<g>
								<g>
									<g>
										<g>
											<g>
												<g>
													<g>
														<path class="st5" d="M36.35,50.17c0,0,2.42,0.07,2.47-1.37l0.13,0.29l3.61,2.19c0.57,0.38,0.53,0.81,0.38,1.03
															c-0.12,0.17-0.32,0.26-0.53,0.23c-1.12-0.13-5.25-0.64-5.46-0.94l-0.22-0.27c-0.34-0.38-0.46-0.84-0.34-1L36.35,50.17
															z"/>
													</g>
												</g>
											</g>
										</g>
									</g>
								</g>
							</g>
						</g>
					</g>
				</g>
				<g class="st12">
					<g>
						<g>
							<g>
								<g>
									<g>
										<g>
											<g>
												<g>
													<g>
														<path class="st13" d="M42.87,52.38l-6.15-1.05l0.14,0.17c0.13,0.19,0.27,0.21,0.46,0.26
															c0.56,0.16,1.95,0.41,5.07,0.79C42.57,52.57,42.75,52.51,42.87,52.38L42.87,52.38z"/>
													</g>
												</g>
											</g>
										</g>
									</g>
								</g>
							</g>
						</g>
					</g>
				</g>
				<g class="st12">
					<g>
						<g>
							<g>
								<g>
									<g>
										<g>
											<g>
												<g>
													<g>
														<g>
															<path class="st13" d="M37.16,50.61c0.16,0,0.32,0.12,0.33,0.27c0.01,0.15-0.13,0.3-0.29,0.3
																c-0.16,0.01-0.36-0.14-0.35-0.29c0.01-0.15,0.18-0.31,0.34-0.29"/>
														</g>
													</g>
												</g>
											</g>
										</g>
									</g>
								</g>
							</g>
						</g>
					</g>
				</g>
				<g>
					<g>
						<g>
							<g>
								<g>
									<g>
										<g>
											<g>
												<g>
													<g>
														<g>
															<path class="st13" d="M40,51.06c0.03-0.01-0.04-0.28,0.13-0.57c0.16-0.29,0.44-0.4,0.43-0.42
																c0-0.01-0.08-0.01-0.19,0.05c-0.11,0.05-0.25,0.17-0.34,0.33c-0.09,0.16-0.11,0.33-0.09,0.44
																C39.95,51,39.99,51.06,40,51.06z"/>
														</g>
													</g>
												</g>
											</g>
										</g>
									</g>
								</g>
							</g>
						</g>
					</g>
				</g>
				<g>
					<g>
						<g>
							<g>
								<g>
									<g>
										<g>
											<g>
												<g>
													<g>
														<g>
															<path class="st13" d="M40.69,51.29c0.03,0,0.07-0.22,0.24-0.43c0.17-0.21,0.39-0.31,0.38-0.34
																c0-0.03-0.28,0.03-0.47,0.27C40.64,51.04,40.66,51.3,40.69,51.29z"/>
														</g>
													</g>
												</g>
											</g>
										</g>
									</g>
								</g>
							</g>
						</g>
					</g>
				</g>
				<g>
					<g>
						<g>
							<g>
								<g>
									<g>
										<g>
											<g>
												<g>
													<g>
														<g>
															<path class="st13" d="M39.23,50.79c0.03,0,0.08-0.29,0.28-0.6c0.2-0.31,0.48-0.47,0.46-0.5
																c-0.01-0.02-0.32,0.12-0.54,0.45C39.2,50.47,39.2,50.8,39.23,50.79z"/>
														</g>
													</g>
												</g>
											</g>
										</g>
									</g>
								</g>
							</g>
						</g>
					</g>
				</g>
				<g>
					<g>
						<g>
							<g>
								<g>
									<g>
										<g>
											<g>
												<g>
													<g>
														<g>
															<path class="st13" d="M39.31,49.92c0,0-0.04-0.06-0.14-0.13c-0.1-0.07-0.27-0.17-0.5-0.23
																c-0.11-0.02-0.25-0.06-0.4-0.01c-0.08,0.03-0.14,0.11-0.13,0.2c0.01,0.09,0.06,0.15,0.12,0.21
																c0.25,0.21,0.69,0.22,0.99-0.01c0.29-0.23,0.37-0.6,0.26-0.89c-0.03-0.07-0.09-0.14-0.18-0.17
																c-0.09-0.03-0.2,0.02-0.24,0.08c-0.09,0.12-0.09,0.25-0.11,0.35c-0.02,0.22,0.02,0.39,0.05,0.51
																C39.07,49.94,39.1,50,39.11,50c0.02,0-0.1-0.26-0.05-0.67c0.02-0.1,0.03-0.22,0.1-0.31
																c0.03-0.04,0.08-0.06,0.13-0.04c0.05,0.01,0.09,0.06,0.11,0.12c0.09,0.24,0.02,0.58-0.24,0.77
																c-0.25,0.19-0.63,0.18-0.84,0.02c-0.05-0.04-0.09-0.09-0.09-0.14c0-0.05,0.02-0.09,0.07-0.11
																c0.1-0.04,0.23-0.02,0.34,0C39.09,49.73,39.3,49.94,39.31,49.92z"/>
														</g>
													</g>
												</g>
											</g>
										</g>
									</g>
								</g>
							</g>
						</g>
					</g>
				</g>
			</g>
		</g>
	</g>
	<g>
		<g>
			<path class="st9" d="M29.93,51.41c0.01,0,0.03,3.4,0.03,3.4s2.56,0.37,2.56,0.31s0.76-3.31,0.76-3.31L29.93,51.41z"/>
		</g>
		<g>
			<g>
				<g>
					<g>
						<g>
							<g>
								<g>
									<g>
										<g>
											<g>
												<g>
													<g>
														<path class="st5" d="M32.73,54.18c0,0-1.86,1.29-2.78,0.13l-0.04,0.31l-1.68,3.67c-0.25,0.61,0.05,0.94,0.31,1.05
															c0.2,0.08,0.43,0.05,0.58-0.08c0.85-0.69,3.98-3.22,3.96-3.58l0.02-0.33c0.06-0.49-0.13-0.93-0.32-1.01L32.73,54.18z"
															/>
													</g>
												</g>
											</g>
										</g>
									</g>
								</g>
							</g>
						</g>
					</g>
				</g>
				<g class="st12">
					<g>
						<g>
							<g>
								<g>
									<g>
										<g>
											<g>
												<g>
													<g>
														<path class="st13" d="M28.64,59.36l4.47-4.02l-0.01,0.21c0.01,0.23-0.1,0.31-0.22,0.45
															c-0.37,0.42-1.37,1.34-3.73,3.25C29.01,59.36,28.82,59.4,28.64,59.36L28.64,59.36z"/>
													</g>
												</g>
											</g>
										</g>
									</g>
								</g>
							</g>
						</g>
					</g>
				</g>
				<g class="st12">
					<g>
						<g>
							<g>
								<g>
									<g>
										<g>
											<g>
												<g>
													<g>
														<g>
															<path class="st13" d="M32.32,54.96c-0.14,0.08-0.19,0.26-0.11,0.39c0.08,0.13,0.28,0.18,0.42,0.1
																c0.14-0.08,0.21-0.3,0.12-0.42c-0.1-0.12-0.34-0.17-0.45-0.06"/>
														</g>
													</g>
												</g>
											</g>
										</g>
									</g>
								</g>
							</g>
						</g>
					</g>
				</g>
				<g>
					<g>
						<g>
							<g>
								<g>
									<g>
										<g>
											<g>
												<g>
													<g>
														<g>
															<path class="st13" d="M30.23,56.79c-0.03,0.01-0.14-0.25-0.45-0.4c-0.31-0.16-0.61-0.1-0.61-0.13
																c0-0.01,0.07-0.05,0.19-0.06c0.12-0.01,0.31,0.01,0.48,0.1c0.17,0.09,0.29,0.21,0.34,0.32
																C30.24,56.71,30.24,56.78,30.23,56.79z"/>
														</g>
													</g>
												</g>
											</g>
										</g>
									</g>
								</g>
							</g>
						</g>
					</g>
				</g>
				<g>
					<g>
						<g>
							<g>
								<g>
									<g>
										<g>
											<g>
												<g>
													<g>
														<g>
															<path class="st13" d="M29.8,57.34c-0.03,0.02-0.19-0.15-0.46-0.23c-0.27-0.09-0.51-0.05-0.52-0.08
																c-0.01-0.03,0.25-0.12,0.56-0.02C29.69,57.1,29.83,57.32,29.8,57.34z"/>
														</g>
													</g>
												</g>
											</g>
										</g>
									</g>
								</g>
							</g>
						</g>
					</g>
				</g>
				<g>
					<g>
						<g>
							<g>
								<g>
									<g>
										<g>
											<g>
												<g>
													<g>
														<g>
															<path class="st13" d="M30.71,56.17c-0.02,0.02-0.24-0.2-0.6-0.35c-0.35-0.15-0.68-0.15-0.68-0.18
																c-0.01-0.02,0.34-0.07,0.72,0.09C30.54,55.89,30.74,56.16,30.71,56.17z"/>
														</g>
													</g>
												</g>
											</g>
										</g>
									</g>
								</g>
							</g>
						</g>
					</g>
				</g>
				<g>
					<g>
						<g>
							<g>
								<g>
									<g>
										<g>
											<g>
												<g>
													<g>
														<g>
															<path class="st13" d="M30.11,55.49c-0.01,0,0-0.07,0.04-0.18c0.04-0.11,0.12-0.28,0.28-0.44
																c0.08-0.08,0.17-0.18,0.33-0.21c0.08-0.02,0.19,0.02,0.23,0.1c0.05,0.07,0.05,0.16,0.03,0.23
																c-0.08,0.3-0.44,0.54-0.82,0.5c-0.38-0.04-0.67-0.31-0.75-0.61c-0.02-0.08-0.02-0.16,0.04-0.24
																c0.06-0.07,0.17-0.08,0.25-0.06c0.15,0.05,0.23,0.16,0.3,0.24c0.15,0.17,0.22,0.33,0.26,0.45
																c0.04,0.11,0.05,0.18,0.04,0.18c-0.02,0.01-0.07-0.26-0.36-0.58c-0.07-0.08-0.16-0.17-0.27-0.2
																c-0.05-0.02-0.1-0.01-0.13,0.03c-0.03,0.03-0.03,0.1-0.02,0.16c0.07,0.24,0.34,0.49,0.66,0.52
																c0.32,0.03,0.64-0.17,0.71-0.42c0.02-0.06,0.01-0.12-0.01-0.16c-0.03-0.04-0.07-0.06-0.13-0.05
																c-0.11,0.02-0.2,0.1-0.28,0.17C30.18,55.22,30.13,55.5,30.11,55.49z"/>
														</g>
													</g>
												</g>
											</g>
										</g>
									</g>
								</g>
							</g>
						</g>
					</g>
				</g>
			</g>
		</g>
	</g>
	<g>
		<g>
			<path class="st14" d="M26.57,24.49l3.2-1.13c0,0,0.81,1.28,2.22,1.17c1.45-0.11,1.41-1.09,1.41-1.09l4.02,1.05c0,0,0.26,5,0,5.78
				c-0.26,0.78-1.02,1.8-1.02,1.8s0.79,1.7,0.81,2.17s-0.2,0.35-0.2,0.35l-9.69,0.11L26.57,24.49z"/>
		</g>
		<g class="st11">
			<g>
				<path d="M35.1,29.61c-0.12-0.1-0.32-0.03-0.47,0.04c-0.84,0.42-1.67,0.83-2.46,1.31c-1,0.61-1.92,1.31-2.9,1.95
					c-0.58,0.37-1.17,0.72-1.78,1.05l-0.21,0.33c0.22,0.33,0.68,0.48,1.1,0.45c0.42-0.03,0.81-0.21,1.16-0.42
					c1.64-0.96,2.8-2.51,4.45-3.47c0.41-0.24,0.86-0.45,1.11-0.83C35.17,29.89,35.22,29.71,35.1,29.61z"/>
			</g>
		</g>
		<g>
			<g>
				<path class="st5" d="M35.47,31.98c0,0.01-0.15,0.01-0.4,0.02c-0.25,0.01-0.59,0.02-0.96,0.04c-0.37,0.03-0.71,0.06-0.96,0.09
					c-0.24,0.03-0.4,0.05-0.4,0.04c0-0.01,0.15-0.05,0.39-0.09c0.24-0.04,0.58-0.08,0.96-0.11c0.38-0.03,0.72-0.03,0.97-0.02
					C35.32,31.95,35.47,31.97,35.47,31.98z"/>
			</g>
		</g>
	</g>
	<g>
		<g>
			<path class="st9" d="M25.12,30.55c0,0,0.89,2.32,1.29,2.91c0.4,0.59,0.57,1.36,1.84,1.04c1.27-0.31,1.91-1.07,3.3-2.12
				c1.39-1.05,2.28-1.84,2.28-1.84l-0.98-1.09l-4.05,1.7l-0.97-1.95L25.12,30.55z"/>
		</g>
		<g>
			<path class="st9" d="M37.37,27.06l-2.78,1.35l-2.28,1.34c0,0,1.13,0.92,1.45,0.9c0.32-0.02,0.75-0.43,0.75-0.43
				s0.05,0.12,0.19,0.17c0.14,0.05,0.3-0.11,0.3-0.11s0.16,0.06,0.3,0.06c0.14,0,0.3-0.49,0.38-0.81c0.08-0.32-0.06-0.48-0.06-0.48
				l0.11-0.06l0.15,0.25l-0.24,0.78c-0.13,0.43,0.32,0.37,0.32,0.37s0.5-0.79,0.55-1.24c0.05-0.45-0.44-0.74-0.44-0.74
				s1.03-0.82,1.28-0.97C37.62,27.27,37.37,27.06,37.37,27.06z"/>
		</g>
		<g>
			<g>
				<path class="st10" d="M28.47,32.86c-0.01,0-0.06-0.09-0.09-0.26c-0.03-0.16-0.05-0.4,0.01-0.65c0.06-0.25,0.17-0.46,0.28-0.6
					c0.1-0.14,0.19-0.21,0.2-0.2c0.02,0.01-0.29,0.32-0.4,0.82C28.35,32.46,28.5,32.86,28.47,32.86z"/>
			</g>
		</g>
		<g>
			<path class="st14" d="M26.74,24.43c0,0-1.79,0.49-2.14,2.22c-0.21,1.04,0.29,4.4,0.29,4.4l3.46-1.18L26.74,24.43z"/>
		</g>
		<g>
			<g>
				<path class="st5" d="M27.32,26.74c0.01,0,0.06,0.18,0.14,0.47c0.08,0.31,0.18,0.7,0.3,1.14c0.12,0.44,0.23,0.84,0.32,1.13
					c0.09,0.29,0.15,0.46,0.14,0.47c-0.01,0-0.03-0.04-0.06-0.12c-0.04-0.08-0.08-0.19-0.13-0.33c-0.1-0.29-0.22-0.68-0.34-1.13
					c-0.12-0.44-0.21-0.85-0.27-1.14C27.34,26.93,27.31,26.75,27.32,26.74z"/>
			</g>
		</g>
	</g>
	<g>
		<g>
			<path class="st15" d="M27.43,34.69c0,0-2.29,2.47-2.23,4.46c0.05,1.99,1.02,3.43,1.02,3.43l3.03,0.16c0,0,0.27-1.33,1.35-1.33
				c0.23,0,4.19,6.96,4.19,6.96l3.87-1.63c0,0-2.55-6.15-3.17-7.6c-0.62-1.45-1.21-2.14-2.04-2.35l-0.93-2.16L27.43,34.69z"/>
		</g>
		<g>
			<g>
				<path class="st7" d="M28.07,37.07c0,0.01-0.14-0.02-0.37-0.04c-0.23-0.02-0.55-0.01-0.88,0.1c-0.33,0.1-0.59,0.28-0.75,0.42
					c-0.16,0.15-0.24,0.26-0.25,0.26c0,0,0.01-0.03,0.04-0.08c0.03-0.05,0.09-0.12,0.17-0.21c0.16-0.16,0.42-0.35,0.77-0.46
					c0.34-0.11,0.68-0.11,0.91-0.08C27.93,37.01,28.07,37.06,28.07,37.07z"/>
			</g>
		</g>
		<g>
			<g>
				<path class="st7" d="M31.77,36.55c-0.02,0-0.04-0.43-0.04-0.96c0-0.53,0.02-0.96,0.04-0.96c0.02,0,0.04,0.43,0.04,0.96
					C31.81,36.12,31.79,36.55,31.77,36.55z"/>
			</g>
		</g>
		<g>
			<g>
				<path class="st7" d="M29.1,34.63c0,0-0.01,0.04-0.04,0.11c-0.03,0.07-0.09,0.17-0.17,0.28c-0.16,0.23-0.45,0.51-0.85,0.7
					c-0.4,0.19-0.82,0.25-1.11,0.24c-0.15,0-0.27-0.02-0.35-0.03c-0.08-0.02-0.12-0.03-0.12-0.03c0-0.01,0.18,0.02,0.47,0.02
					c0.29-0.01,0.69-0.07,1.08-0.25c0.39-0.19,0.67-0.46,0.84-0.67C29.02,34.78,29.09,34.63,29.1,34.63z"/>
			</g>
		</g>
		<g>
			<path class="st15" d="M37.09,34.58c0,0,1.25,1.14,1.56,2.87c0.31,1.73,0.33,3.98-0.2,4.81l-1.53,0.32l-1.35,1.26l-1.91,9.55
				l-4.33-0.55c0,0-0.41-8.3-0.27-9.09c0.14-0.79,0.17-1.01,0.17-1.01s-0.1-1.3,0.93-2.24c1.02-0.94,2.48-1.92,2.48-1.92l-0.13-3.94
				L37.09,34.58z"/>
		</g>
		<g>
			<g>
				<path class="st7" d="M38.04,35.93c0,0-0.05,0.02-0.14,0.05c-0.09,0.03-0.23,0.06-0.41,0.08c-0.35,0.04-0.86,0.03-1.35-0.2
					c-0.12-0.06-0.23-0.13-0.33-0.21c-0.1-0.07-0.19-0.15-0.27-0.22c-0.17-0.15-0.31-0.29-0.42-0.42c-0.11-0.12-0.2-0.23-0.26-0.3
					c-0.06-0.07-0.09-0.11-0.08-0.12c0.01-0.01,0.15,0.14,0.39,0.38c0.12,0.12,0.26,0.26,0.43,0.4c0.17,0.14,0.36,0.3,0.59,0.42
					c0.47,0.22,0.97,0.24,1.31,0.21C37.83,35.99,38.03,35.92,38.04,35.93z"/>
			</g>
		</g>
		<g>
			<g>
				<path class="st7" d="M29.24,42.74c0,0,0.01-0.05,0.02-0.13c0.01-0.04,0.02-0.1,0.04-0.16c0.02-0.06,0.04-0.14,0.09-0.22
					c0.08-0.16,0.21-0.35,0.43-0.51c0.22-0.16,0.52-0.3,0.89-0.33l0.01,0l0.01,0.01c0.9,1.53,2.34,4,4.08,6.97l-0.05-0.01
					c1.2-0.51,2.51-1.06,3.87-1.63l-0.02,0.05c-0.2-0.46-0.41-0.96-0.62-1.45c-0.73-1.72-1.44-3.38-2.09-4.9
					c-0.32-0.76-0.64-1.49-0.93-2.19c-0.14-0.35-0.36-0.65-0.63-0.89c-0.28-0.23-0.61-0.4-0.94-0.48l0,0
					c-0.92-0.24-1.79-0.31-2.56-0.28c-0.76,0.03-1.41,0.16-1.93,0.29c-0.52,0.14-0.91,0.3-1.17,0.41c-0.13,0.06-0.23,0.1-0.29,0.13
					c-0.07,0.03-0.1,0.04-0.1,0.04s0.03-0.02,0.1-0.05c0.06-0.03,0.16-0.08,0.29-0.14c0.26-0.12,0.64-0.28,1.16-0.42
					c0.52-0.14,1.17-0.28,1.94-0.31c0.77-0.04,1.65,0.03,2.57,0.27l0,0c0.35,0.08,0.69,0.25,0.98,0.49
					c0.29,0.24,0.51,0.55,0.65,0.91c0.3,0.69,0.61,1.42,0.93,2.19c0.65,1.53,1.36,3.18,2.09,4.9c0.21,0.5,0.42,0.99,0.62,1.45
					l0.01,0.03l-0.03,0.01C37.31,47.35,36,47.9,34.8,48.4l-0.03,0.01l-0.02-0.03c-1.73-2.98-3.16-5.45-4.05-6.98l0.02,0.01
					c-0.35,0.03-0.66,0.16-0.87,0.32c-0.22,0.16-0.35,0.34-0.43,0.5c-0.05,0.08-0.07,0.15-0.09,0.21c-0.03,0.06-0.04,0.12-0.05,0.16
					C29.26,42.69,29.24,42.74,29.24,42.74z"/>
			</g>
		</g>
		<g>
			<g>
				<path class="st7" d="M38.04,37.58c-0.01,0.01-0.17-0.1-0.47-0.21c-0.15-0.06-0.33-0.11-0.54-0.16
					c-0.21-0.04-0.44-0.07-0.69-0.07c-0.25,0-0.48,0.03-0.69,0.06c-0.21,0.04-0.39,0.1-0.54,0.15c-0.3,0.11-0.47,0.22-0.48,0.21
					c0,0,0.04-0.03,0.11-0.08c0.04-0.02,0.08-0.05,0.14-0.08c0.06-0.03,0.12-0.06,0.2-0.09c0.15-0.07,0.34-0.12,0.55-0.17
					c0.21-0.04,0.45-0.07,0.71-0.07c0.25,0,0.49,0.03,0.71,0.08c0.21,0.05,0.4,0.11,0.55,0.18c0.08,0.03,0.14,0.07,0.2,0.1
					c0.06,0.03,0.1,0.06,0.14,0.08C38,37.55,38.04,37.58,38.04,37.58z"/>
			</g>
		</g>
		<g class="st11">
			<path d="M30.72,41.39c0,0,1.14,4.5,2.39,5.76c1.25,1.26,1.58,1.53,1.58,1.53l0.09-0.31L30.72,41.39z"/>
		</g>
	</g>
	<g>
		<g>
			<path class="st9" d="M37.47,33.5c0,0,0.13-0.7,0.5-1.1c0.37-0.4,1.05-0.87,1.05-0.87h0.19l0.5-1.04l1.41-0.06
				c0,0-0.3,2.53-0.98,3.3c-0.68,0.77-1.37,0.73-1.66,0.65C38.2,34.31,37.47,33.5,37.47,33.5z"/>
		</g>
		<g>
			<g>
				<path class="st5" d="M35.04,23.72l-1.11,5.06c-0.06,0.28,0.17,0.54,0.48,0.54h7.67c0.23,0,0.43-0.15,0.48-0.35l1.23-5.06
					c0.07-0.28-0.16-0.55-0.48-0.55h-7.79C35.28,23.36,35.08,23.51,35.04,23.72z"/>
			</g>
			<g>
				<g>
					<path class="st13" d="M35.04,23.72c0,0,0-0.02,0.02-0.07c0.02-0.04,0.05-0.11,0.12-0.18c0.07-0.06,0.19-0.12,0.34-0.13
						c0.15,0,0.31,0,0.5,0c0.76,0,1.85-0.01,3.19-0.01c0.67,0,1.41,0,2.2,0c0.4,0,0.81,0,1.23,0c0.21,0,0.42,0,0.64,0
						c0.23-0.01,0.47,0.14,0.53,0.35c0.04,0.11,0.01,0.23-0.01,0.32c-0.02,0.1-0.05,0.2-0.07,0.31c-0.05,0.2-0.1,0.41-0.15,0.62
						c-0.1,0.42-0.21,0.85-0.31,1.28c-0.21,0.87-0.43,1.77-0.66,2.69c-0.01,0.06-0.03,0.12-0.06,0.18
						c-0.03,0.06-0.07,0.11-0.12,0.15c-0.1,0.09-0.24,0.13-0.38,0.12c-0.25,0-0.51,0-0.76,0c-0.5,0-0.99,0-1.48,0
						c-0.97,0-1.9,0-2.79,0c-0.89,0-1.74,0-2.53,0c-0.1,0-0.21,0-0.3-0.04c-0.09-0.04-0.17-0.11-0.23-0.18
						c-0.05-0.08-0.08-0.17-0.08-0.26c0.01-0.09,0.03-0.17,0.05-0.26c0.07-0.33,0.14-0.65,0.21-0.95c0.27-1.21,0.49-2.19,0.65-2.87
						c0.08-0.34,0.14-0.6,0.18-0.78c0.02-0.09,0.04-0.15,0.05-0.2C35.03,23.75,35.04,23.72,35.04,23.72s0,0.02-0.01,0.07
						c-0.01,0.05-0.02,0.12-0.04,0.2c-0.04,0.18-0.09,0.45-0.16,0.78c-0.15,0.68-0.36,1.67-0.62,2.88c-0.07,0.3-0.14,0.62-0.21,0.95
						c-0.02,0.08-0.04,0.17-0.05,0.25c0,0.08,0.02,0.16,0.07,0.23c0.05,0.07,0.12,0.13,0.2,0.16c0.08,0.04,0.17,0.04,0.27,0.04
						c0.79,0,1.64,0,2.53,0c0.89,0,1.83,0,2.79,0c0.48,0,0.98,0,1.48,0c0.25,0,0.5,0,0.76,0c0.12,0,0.24-0.03,0.32-0.11
						c0.04-0.04,0.08-0.08,0.1-0.13c0.03-0.05,0.04-0.1,0.05-0.16c0.22-0.92,0.44-1.82,0.66-2.69c0.11-0.43,0.21-0.86,0.31-1.28
						c0.05-0.21,0.1-0.42,0.15-0.62c0.03-0.1,0.05-0.2,0.07-0.31c0.03-0.1,0.05-0.19,0.02-0.29c-0.05-0.19-0.25-0.32-0.46-0.31
						c-0.22,0-0.43,0-0.64,0c-0.42,0-0.83,0-1.23,0c-0.79,0-1.53,0-2.2,0c-1.34,0-2.43-0.01-3.19-0.01c-0.19,0-0.36,0-0.5,0
						c-0.14,0-0.26,0.06-0.33,0.12C35.05,23.62,35.05,23.73,35.04,23.72z"/>
				</g>
			</g>
		</g>
		<g>
			<path class="st9" d="M39.6,26.03c0,0,0.93,1.45,1.02,1.64c0.1,0.19,0.37,0.49,0.39,0.67c0.02,0.18,0.24,1.23,0.22,1.6
				c-0.02,0.38-0.25,0.84-0.25,0.84l-1.27-0.29c0,0-0.3-0.24-0.47-0.6c-0.17-0.36-0.33-0.49-0.49-0.61
				c-0.16-0.11-0.8-0.48-0.88-0.62c-0.09-0.16,0-0.29,0-0.29s-0.3-0.13-0.34-0.28c-0.05-0.16,0-0.38,0.33-0.24
				c0.33,0.14,1.56,0.95,1.69,0.86c0.12-0.09-0.03-0.3-0.03-0.3s-1.31-1.1-1.37-1.29c-0.07-0.19,0.12-0.47,0.43-0.23
				c0.31,0.24,1.31,1.17,1.41,1.17s-0.01-0.27-0.01-0.27s-0.51-1.02-0.6-1.29C39.3,26.25,39.35,25.89,39.6,26.03z"/>
		</g>
		<g>
			<g>
				<path class="st7" d="M43.84,23.66c0,0-0.01,0-0.04,0c-0.03,0-0.07,0-0.11,0c-0.1,0-0.24,0-0.42,0.01c-0.37,0-0.9,0.01-1.55,0.01
					c-1.32,0-3.12,0.01-5.12,0.01c-0.25,0-0.5,0-0.74,0c-0.12-0.01-0.23,0.02-0.31,0.09c-0.04,0.03-0.07,0.08-0.09,0.12
					c-0.02,0.04-0.03,0.1-0.04,0.15c-0.1,0.42-0.2,0.83-0.29,1.22c-0.18,0.78-0.34,1.48-0.47,2.07c-0.14,0.59-0.25,1.07-0.34,1.39
					c-0.04,0.16-0.08,0.28-0.1,0.38c-0.01,0.04-0.02,0.07-0.03,0.1c-0.01,0.02-0.01,0.03-0.01,0.03c0,0,0-0.01,0-0.03
					c0.01-0.03,0.01-0.06,0.02-0.1c0.02-0.09,0.05-0.22,0.09-0.38c0.08-0.34,0.18-0.81,0.31-1.4c0.13-0.59,0.29-1.29,0.46-2.07
					c0.09-0.39,0.18-0.8,0.29-1.22c0.01-0.05,0.02-0.1,0.04-0.16c0.02-0.06,0.06-0.11,0.11-0.15c0.09-0.09,0.24-0.12,0.36-0.11
					c0.24,0,0.49,0,0.74,0c2,0,3.8,0.01,5.12,0.01c0.65,0,1.18,0.01,1.55,0.01c0.18,0,0.32,0.01,0.42,0.01c0.04,0,0.08,0,0.11,0
					C43.83,23.66,43.84,23.66,43.84,23.66z"/>
			</g>
		</g>
		<g>
			<g>
				<path class="st10" d="M37.66,32.58c0,0,0.01-0.04,0.04-0.11c0.04-0.07,0.09-0.17,0.18-0.28c0.17-0.22,0.5-0.49,0.95-0.6
					c0.12-0.03,0.23-0.04,0.35-0.05l-0.03,0.02c0.17-0.29,0.31-0.57,0.41-0.75c0.1-0.19,0.16-0.3,0.17-0.3
					c0.01,0-0.04,0.12-0.12,0.32c-0.09,0.2-0.21,0.47-0.39,0.77L39.2,31.6l-0.02,0c-0.11,0.01-0.22,0.02-0.33,0.05
					c-0.43,0.1-0.75,0.36-0.93,0.57C37.74,32.43,37.67,32.59,37.66,32.58z"/>
			</g>
		</g>
		<g>
			<g>
				<path class="st10" d="M39.3,29.17c-0.01,0.02-0.34-0.15-0.73-0.37c-0.39-0.22-0.7-0.41-0.69-0.43c0.01-0.02,0.34,0.15,0.73,0.37
					C39.01,28.97,39.31,29.16,39.3,29.17z"/>
			</g>
		</g>
		<g>
			<path class="st3" d="M39.71,24.88c-0.05,0.14-0.19,0.22-0.32,0.18c-0.13-0.04-0.2-0.18-0.16-0.32c0.05-0.14,0.19-0.22,0.32-0.18
				C39.69,24.6,39.76,24.74,39.71,24.88z"/>
		</g>
	</g>
</g>
<g>
</g>
<g>
</g>
<g>
</g>
<g>
</g>
<g>
</g>
<g>
</g>
</svg>
