<?xml version="1.0" encoding="utf-8"?>
<!-- Generator: Adobe Illustrator 26.0.0, SVG Export Plug-In . SVG Version: 6.00 Build 0)  -->
<svg version="1.1" id="Layer_1" xmlns="http://www.w3.org/2000/svg" xmlns:xlink="http://www.w3.org/1999/xlink" x="0px" y="0px"
	 viewBox="0 0 72 72" style="enable-background:new 0 0 72 72;" xml:space="preserve">
<style type="text/css">
	.st0{fill:#B93160;}
	.st1{fill:#263238;}
	.st2{fill:#455B64;}
	.st3{fill:#FFFFFF;}
	.st4{fill:#F5F5F5;}
	.st5{fill:#ED1965;}
	.st6{fill:#F48EB0;}
	.st7{fill:#E91D2E;}
	.st8{fill:#E52E5A;}
	.st9{fill:#6E93CC;}
	.st10{fill:none;}
	.st11{fill:#BE1E2D;stroke:#BE1E2D;stroke-width:0.25;stroke-miterlimit:10;}
	.st12{fill:#FFFFFF;stroke:#FFFFFF;stroke-width:0.15;stroke-miterlimit:10;}
</style>
<g>
	<g>
		<g>
			<g>
				<g>
					<g>
						<g>
							<g>
								<g>
									<g>
										<g>
											<g>
												<g>
													<g>
														<g>
															<g>
																<g>
																	<g>
																		<g>
																			<g>
																				<g>
																					<g>
																						<path class="st0" d="M66.89,68.81l-59.7,0c-1.62,0-2.93-0.85-2.93-1.91l0-57.47c0-1.05,1.31-1.91,2.93-1.91
																							l59.7,0c1.62,0,2.93,0.85,2.93,1.91l0,57.47C69.82,67.96,68.51,68.81,66.89,68.81z"/>
																					</g>
																				</g>
																			</g>
																		</g>
																	</g>
																	<g>
																		<g>
																			<g>
																				<g>
																					<g>
																						<g>
																							<path class="st1" d="M66.89,68.81c0,0,0.07,0,0.2-0.01c0.07,0,0.15-0.01,0.25-0.02
																								c0.1-0.01,0.21-0.03,0.34-0.05c0.26-0.05,0.57-0.13,0.89-0.28c0.32-0.15,0.65-0.37,0.89-0.67
																								c0.12-0.15,0.21-0.32,0.27-0.51c0.06-0.19,0.06-0.39,0.05-0.6c0-0.42,0-0.88,0-1.38c0-1,0-2.15-0.01-3.44
																								c0-5.18-0.01-12.67-0.02-21.93c0-4.63-0.01-9.7-0.01-15.15c0-2.72,0-5.54,0-8.44c0-1.45,0-2.92,0-4.41
																								c0-0.75,0-1.5,0-2.25c0-0.19,0.01-0.38-0.05-0.56c-0.05-0.18-0.13-0.36-0.27-0.53
																								c-0.26-0.33-0.68-0.61-1.18-0.79c-0.25-0.09-0.53-0.15-0.81-0.19c-0.28-0.04-0.57-0.04-0.87-0.04
																								c-0.59,0-1.18,0-1.78,0c-1.19,0-2.39,0-3.59,0c-2.41,0-4.84,0-7.3,0c-4.92,0-9.94,0-15.06,0
																								c-10.23,0-20.81,0-31.66,0C6.54,7.57,5.88,7.72,5.37,8C4.86,8.28,4.51,8.67,4.38,9.09
																								C4.31,9.3,4.34,9.52,4.33,9.74v0.66c0,0.44,0,0.87,0,1.31c0,1.74,0,3.48,0,5.2c0,3.44,0,6.83,0,10.16
																								c0,6.66,0,13.09,0,19.21c0,6.12,0,11.94-0.01,17.39c0,0.68,0,1.36,0,2.02c0,0.33,0,0.67,0,1
																								c0,0.17-0.01,0.33,0.03,0.49c0.03,0.16,0.11,0.32,0.2,0.47c0.39,0.59,1.27,1.03,2.24,1.11
																								c0.24,0.02,0.48,0.02,0.73,0.02c0.25,0,0.49,0,0.74,0c0.49,0,0.98,0,1.46,0c3.88,0,7.6,0,11.16,0
																								c14.22,0.01,25.72,0.01,33.67,0.01c3.97,0,7.06,0.01,9.15,0.01c1.05,0,1.84,0,2.38,0
																								C66.62,68.81,66.89,68.81,66.89,68.81s-0.27,0-0.81,0c-0.54,0-1.33,0-2.38,0c-2.09,0-5.18,0-9.15,0.01
																								c-7.95,0-19.45,0.01-33.67,0.01c-3.55,0-7.28,0-11.16,0c-0.48,0-0.97,0-1.46,0c-0.24,0-0.49,0-0.74,0
																								c-0.24,0-0.5,0-0.75-0.02c-1-0.08-1.91-0.54-2.32-1.15c-0.09-0.15-0.18-0.32-0.21-0.48
																								c-0.04-0.17-0.03-0.34-0.04-0.5c0-0.33,0-0.66,0-1c0-0.67,0-1.34,0-2.02c0-5.45,0-11.26-0.01-17.39
																								c0-6.12,0-12.55,0-19.21c0-3.33,0-6.72,0-10.16c0-1.72,0-3.45,0-5.2c0-0.44,0-0.87,0-1.31l0-0.66
																								c0-0.22-0.02-0.44,0.05-0.66c0.13-0.44,0.5-0.85,1.03-1.14C5.82,7.65,6.51,7.49,7.2,7.49
																								c10.84,0,21.43,0,31.66,0c5.11,0,10.14,0,15.06,0c2.46,0,4.89,0,7.3,0c1.2,0,2.4,0,3.59,0
																								c0.59,0,1.19,0,1.78,0c0.29,0,0.6,0,0.89,0.04c0.29,0.04,0.58,0.11,0.84,0.2c0.52,0.19,0.96,0.48,1.23,0.82
																								c0.14,0.17,0.23,0.36,0.28,0.55c0.06,0.19,0.04,0.39,0.05,0.57c0,0.76,0,1.51,0,2.25c0,1.49,0,2.96,0,4.41
																								c0,2.9,0,5.72,0,8.44c0,5.44-0.01,10.52-0.01,15.15c-0.01,9.26-0.02,16.75-0.02,21.93
																								c0,1.29,0,2.44-0.01,3.44c0,0.5,0,0.96,0,1.38c0,0.21,0,0.41-0.06,0.6c-0.06,0.19-0.15,0.36-0.28,0.51
																								c-0.24,0.3-0.58,0.52-0.9,0.67c-0.33,0.15-0.64,0.23-0.9,0.28c-0.13,0.02-0.24,0.04-0.35,0.05
																								c-0.1,0.01-0.18,0.02-0.25,0.02C66.96,68.81,66.89,68.81,66.89,68.81z"/>
																						</g>
																					</g>
																				</g>
																			</g>
																		</g>
																	</g>
																</g>
															</g>
														</g>
													</g>
												</g>
											</g>
										</g>
										<g>
											<g>
												<g>
													<g>
														<g>
															<g>
																<g>
																	<g>
																		<g>
																			<g>
																				<g>
																					<g>
																						<ellipse class="st2" cx="37.04" cy="65.73" rx="2.52" ry="1.64"/>
																					</g>
																				</g>
																			</g>
																		</g>
																	</g>
																</g>
															</g>
														</g>
													</g>
												</g>
											</g>
										</g>
									</g>
								</g>
							</g>
						</g>
					</g>
					<g>
						<g>
							<g>
								<g>
									<path class="st2" d="M43.76,10.77H30.37c-0.52,0-0.93-0.27-0.93-0.61l0,0c0-0.34,0.42-0.61,0.93-0.61h13.39
										c0.52,0,0.93,0.27,0.93,0.61l0,0C44.69,10.49,44.27,10.77,43.76,10.77z"/>
								</g>
							</g>
						</g>
					</g>
				</g>
			</g>
			<g>
				<g>
					<g>
						<g>
							<g>
								<g>
									<g>
										<g>
											<g>
												<g>
													<g>
														<g>
															<rect x="6.28" y="11.9" class="st3" width="61.42" height="51.18"/>
														</g>
													</g>
												</g>
											</g>
										</g>
									</g>
								</g>
							</g>
						</g>
					</g>
				</g>
			</g>
		</g>
	</g>
	<g>
		<g>
			<g>
				<g>
					<path class="st4" d="M57.34,40.75H16.65c-0.22,0-0.41-0.12-0.41-0.26v-4.14c0-0.15,0.18-0.26,0.41-0.26h40.68
						c0.22,0,0.41,0.12,0.41,0.26v4.14C57.74,40.63,57.56,40.75,57.34,40.75z"/>
				</g>
				<g>
					<g>
						<path class="st1" d="M57.34,40.75c0-0.01,0.09,0.01,0.23-0.05c0.06-0.03,0.13-0.08,0.16-0.16c0.01-0.08,0-0.17,0-0.28
							c0-0.42-0.01-1.04-0.01-1.83c0-0.4,0-0.84-0.01-1.33c0-0.24,0-0.49,0-0.76c0-0.12-0.16-0.23-0.35-0.24c-0.21,0-0.42,0-0.64,0
							c-1.74,0-3.71,0-5.9,0.01c-8.75,0-20.82,0.01-34.16,0.01c-0.18,0-0.33,0.1-0.33,0.21l0,0.4c0,0.27,0,0.54,0,0.81
							c0,0.54,0,1.07,0,1.6c0,0.26,0,0.53,0,0.79l0,0.39c0,0.06,0,0.14,0,0.19c0.01,0.05,0.06,0.1,0.12,0.14
							c0.07,0.03,0.14,0.05,0.23,0.05l0.3,0l0.6,0c0.4,0,0.79,0,1.18,0c3.15,0,6.18,0,9.07,0c5.78,0,10.99,0.01,15.36,0.01
							c4.37,0.01,7.91,0.01,10.35,0.02c1.22,0,2.17,0.01,2.81,0.01c0.32,0,0.56,0,0.73,0C57.25,40.75,57.34,40.75,57.34,40.75
							s-0.08,0-0.25,0c-0.17,0-0.41,0-0.73,0c-0.65,0-1.6,0.01-2.81,0.01c-2.45,0-5.98,0.01-10.35,0.02
							c-4.37,0-9.58,0.01-15.36,0.01c-2.89,0-5.92,0-9.07,0c-0.39,0-0.79,0-1.18,0l-0.6,0l-0.3,0c-0.11,0-0.23-0.02-0.32-0.07
							c-0.09-0.05-0.16-0.12-0.17-0.19c-0.01-0.08,0-0.13-0.01-0.2l0-0.39c0-0.26,0-0.53,0-0.79c0-0.53,0-1.06,0-1.6
							c0-0.27,0-0.54,0-0.81l0-0.41c0-0.16,0.23-0.31,0.48-0.3c13.34,0.01,25.41,0.01,34.16,0.01c2.19,0,4.16,0,5.9,0.01
							c0.22,0,0.43,0,0.64,0c0.23,0,0.43,0.14,0.42,0.29c0,0.26,0,0.52,0,0.76c0,0.48,0,0.93-0.01,1.33
							c-0.01,0.79-0.01,1.41-0.01,1.83c0,0.11,0.01,0.2-0.01,0.28c-0.03,0.08-0.1,0.14-0.17,0.17c-0.07,0.03-0.13,0.04-0.18,0.04
							C57.36,40.75,57.34,40.75,57.34,40.75z"/>
					</g>
				</g>
			</g>
			<g>
				<g>
					<path class="st4" d="M57.38,47.16H16.7c-0.22,0-0.41-0.12-0.41-0.26v-4.14c0-0.15,0.18-0.26,0.41-0.26h40.68
						c0.22,0,0.41,0.12,0.41,0.26v4.14C57.78,47.04,57.6,47.16,57.38,47.16z"/>
				</g>
				<g>
					<g>
						<path class="st1" d="M57.38,47.16c0-0.01,0.09,0.01,0.23-0.05c0.06-0.03,0.13-0.08,0.16-0.16c0.01-0.08,0-0.17,0-0.28
							c0-0.42-0.01-1.04-0.01-1.83c0-0.4,0-0.84-0.01-1.33c0-0.24,0-0.49,0-0.76c0-0.12-0.16-0.23-0.35-0.24c-0.21,0-0.42,0-0.64,0
							c-1.74,0-3.71,0-5.9,0.01c-8.75,0-20.82,0.01-34.16,0.01c-0.18,0-0.33,0.1-0.33,0.21l0,0.4c0,0.27,0,0.54,0,0.81
							c0,0.54,0,1.07,0,1.6c0,0.26,0,0.53,0,0.79l0,0.39c0,0.06,0,0.14,0,0.19c0.01,0.05,0.06,0.1,0.12,0.14
							c0.07,0.03,0.14,0.05,0.23,0.05l0.3,0l0.6,0c0.4,0,0.79,0,1.18,0c3.15,0,6.18,0,9.07,0c5.78,0,10.99,0.01,15.36,0.01
							c4.37,0.01,7.91,0.01,10.35,0.02c1.22,0,2.17,0.01,2.81,0.01c0.32,0,0.56,0,0.73,0C57.29,47.16,57.38,47.16,57.38,47.16
							s-0.08,0-0.25,0c-0.17,0-0.41,0-0.73,0c-0.65,0-1.6,0.01-2.81,0.01c-2.45,0-5.98,0.01-10.35,0.02
							c-4.37,0-9.58,0.01-15.36,0.01c-2.89,0-5.92,0-9.07,0c-0.39,0-0.79,0-1.18,0l-0.6,0l-0.3,0c-0.11,0-0.23-0.02-0.32-0.07
							c-0.09-0.05-0.16-0.12-0.17-0.19c-0.01-0.08,0-0.13-0.01-0.2l0-0.39c0-0.26,0-0.53,0-0.79c0-0.53,0-1.06,0-1.6
							c0-0.27,0-0.54,0-0.81l0-0.41c0-0.16,0.23-0.31,0.48-0.3c13.34,0.01,25.41,0.01,34.16,0.01c2.19,0,4.16,0,5.9,0.01
							c0.22,0,0.43,0,0.64,0c0.23,0,0.43,0.14,0.42,0.29c0,0.26,0,0.52,0,0.76c0,0.48,0,0.93-0.01,1.33
							c-0.01,0.79-0.01,1.41-0.01,1.83c0,0.11,0.01,0.2-0.01,0.28c-0.03,0.08-0.1,0.14-0.17,0.17c-0.07,0.03-0.13,0.04-0.18,0.04
							C57.4,47.17,57.38,47.16,57.38,47.16z"/>
					</g>
				</g>
			</g>
			<g>
				<path class="st1" d="M20.53,37.77v1.08h-0.19l-0.99-0.8v0.8h-0.24v-1.08h0.19l0.99,0.8v-0.8H20.53z"/>
				<path class="st1" d="M21.99,38.36v0.49h-0.22v-0.11c-0.08,0.07-0.22,0.12-0.41,0.12c-0.28,0-0.46-0.1-0.46-0.24
					c0-0.13,0.13-0.24,0.5-0.24h0.36v-0.03c0-0.12-0.11-0.2-0.34-0.2c-0.15,0-0.3,0.03-0.4,0.09l-0.09-0.11
					c0.13-0.07,0.32-0.1,0.52-0.1C21.79,38.02,21.99,38.13,21.99,38.36z M21.76,38.6v-0.11h-0.35c-0.22,0-0.29,0.06-0.29,0.13
					c0,0.08,0.1,0.13,0.28,0.13C21.57,38.74,21.7,38.69,21.76,38.6z"/>
				<path class="st1" d="M24.49,38.38v0.47h-0.23V38.4c0-0.16-0.12-0.24-0.32-0.24c-0.23,0-0.38,0.09-0.38,0.27v0.42h-0.23V38.4
					c0-0.16-0.12-0.24-0.32-0.24c-0.23,0-0.38,0.09-0.38,0.27v0.42h-0.23v-0.82h0.22v0.12c0.09-0.08,0.24-0.13,0.43-0.13
					c0.19,0,0.35,0.05,0.44,0.15c0.09-0.09,0.27-0.15,0.48-0.15C24.28,38.02,24.49,38.14,24.49,38.38z"/>
				<path class="st1" d="M26.05,38.49h-1.02c0.03,0.14,0.21,0.24,0.45,0.24c0.15,0,0.27-0.03,0.36-0.1l0.13,0.1
					c-0.11,0.09-0.29,0.13-0.49,0.13c-0.4,0-0.67-0.17-0.67-0.42c0-0.24,0.27-0.42,0.63-0.42c0.36,0,0.62,0.17,0.62,0.42
					C26.05,38.46,26.05,38.48,26.05,38.49z M25.03,38.38h0.8c-0.02-0.14-0.18-0.23-0.4-0.23C25.22,38.15,25.05,38.24,25.03,38.38z"
					/>
			</g>
			<g>
				<path class="st5" d="M56.27,57.03H17.15c-0.8,0-1.45-0.65-1.45-1.45v-2.91c0-0.8,0.65-1.45,1.45-1.45h39.12
					c0.8,0,1.45,0.65,1.45,1.45v2.91C57.73,56.38,57.07,57.03,56.27,57.03z"/>
			</g>
			<g>
				<path class="st3" d="M35.42,52.02c-0.15,0-0.27,0.07-0.27,0.2"/>
				<path class="st3" d="M37.01,52.36 M37.01,52.02"/>
			</g>
			<g>
				<path class="st1" d="M19.52,44.86c0,0.22-0.28,0.41-0.62,0.41c-0.34,0-0.62-0.18-0.62-0.41c0-0.22,0.28-0.41,0.62-0.41
					C19.24,44.45,19.52,44.63,19.52,44.86z"/>
			</g>
			<g>
				<path class="st1" d="M21.48,44.86c0,0.22-0.28,0.41-0.62,0.41c-0.34,0-0.62-0.18-0.62-0.41c0-0.22,0.28-0.41,0.62-0.41
					C21.2,44.45,21.48,44.63,21.48,44.86z"/>
			</g>
			<g>
				<path class="st1" d="M23.45,44.86c0,0.22-0.28,0.41-0.62,0.41c-0.34,0-0.62-0.18-0.62-0.41c0-0.22,0.28-0.41,0.62-0.41
					C23.17,44.45,23.45,44.63,23.45,44.86z"/>
			</g>
			<g>
				<path class="st1" d="M25.41,44.86c0,0.22-0.28,0.41-0.62,0.41c-0.34,0-0.62-0.18-0.62-0.41c0-0.22,0.28-0.41,0.62-0.41
					C25.13,44.45,25.41,44.63,25.41,44.86z"/>
			</g>
			<g>
				<path class="st1" d="M27.37,44.86c0,0.22-0.28,0.41-0.62,0.41c-0.34,0-0.62-0.18-0.62-0.41c0-0.22,0.28-0.41,0.62-0.41
					C27.09,44.45,27.37,44.63,27.37,44.86z"/>
			</g>
			<g>
				<path class="st1" d="M29.33,44.86c0,0.22-0.28,0.41-0.62,0.41c-0.34,0-0.62-0.18-0.62-0.41c0-0.22,0.28-0.41,0.62-0.41
					C29.05,44.45,29.33,44.63,29.33,44.86z"/>
			</g>
			<g>
				<path class="st1" d="M31.29,44.86c0,0.22-0.28,0.41-0.62,0.41c-0.34,0-0.62-0.18-0.62-0.41c0-0.22,0.28-0.41,0.62-0.41
					C31.01,44.45,31.29,44.63,31.29,44.86z"/>
			</g>
			<g>
				<path class="st1" d="M33.25,44.86c0,0.22-0.28,0.41-0.62,0.41c-0.34,0-0.62-0.18-0.62-0.41c0-0.22,0.28-0.41,0.62-0.41
					C32.97,44.45,33.25,44.63,33.25,44.86z"/>
			</g>
			<g>
				<path class="st6" d="M54.55,44.56h-0.16v-0.15c0-0.28-0.35-0.5-0.77-0.5c-0.43,0-0.77,0.23-0.77,0.5v0.15h-0.23
					c-0.16,0-0.29,0.08-0.29,0.19v0.82c0,0.1,0.13,0.19,0.29,0.19h1.94c0.16,0,0.29-0.08,0.29-0.19v-0.82
					C54.84,44.64,54.71,44.56,54.55,44.56z M53.87,45.48h-0.59l0.15-0.25c-0.11-0.03-0.18-0.1-0.18-0.19c0-0.12,0.14-0.21,0.32-0.21
					c0.18,0,0.32,0.09,0.32,0.21c0,0.08-0.08,0.15-0.18,0.19L53.87,45.48z M54.15,44.56h-1.08v-0.15c0-0.19,0.24-0.35,0.54-0.35
					c0.3,0,0.54,0.16,0.54,0.35V44.56z"/>
			</g>
		</g>
		<g>
			<g>
				<g>
					<g>
						<g>
							<g>
								<g>
									<g>
										<g>
											<path class="st6" d="M54.21,38.45c0.3-0.08,0.52-0.29,0.52-0.52c0-0.31-0.36-0.57-0.81-0.57c-0.45,0-0.82,0.25-0.82,0.56
												c0,0.24,0.21,0.45,0.52,0.53c-1.26,0.12-1.2,1.01-1.2,1.01l2.97,0.01C55.39,39.47,55.45,38.57,54.21,38.45z"/>
										</g>
									</g>
								</g>
							</g>
						</g>
					</g>
				</g>
			</g>
		</g>
	</g>
	<g>
		<g>
			<g>
				<path class="st7" d="M60.68,14.97c1,0,1.99,0,2.99,0c0.22,0,0.22-0.23,0-0.23c-1,0-1.99,0-2.99,0
					C60.45,14.74,60.45,14.97,60.68,14.97L60.68,14.97z"/>
			</g>
		</g>
		<g>
			<g>
				<path class="st7" d="M60.68,15.58c1,0,1.99,0,2.99,0c0.22,0,0.22-0.23,0-0.23c-1,0-1.99,0-2.99,0
					C60.45,15.35,60.45,15.58,60.68,15.58L60.68,15.58z"/>
			</g>
		</g>
		<g>
			<g>
				<path class="st8" d="M60.68,16.19c1,0,1.99,0,2.99,0c0.22,0,0.22-0.23,0-0.23c-1,0-1.99,0-2.99,0
					C60.45,15.97,60.45,16.19,60.68,16.19L60.68,16.19z"/>
			</g>
		</g>
	</g>
</g>
<g id="Layer_2_1_">
	<g id="Layer_1-2">
		<path class="st9" d="M10.25,16.94l-3.05,1.55c-0.21,0.11-0.26,0.32-0.1,0.47c0.03,0.03,0.07,0.05,0.11,0.07l10.69,5.06
			c0.24,0.12,0.58,0.07,0.75-0.1c0.06-0.06,0.09-0.13,0.1-0.21l0.14-8.36c0-0.11-0.07-0.21-0.19-0.27l-1.03-0.55
			c-0.22-0.11-0.53-0.09-0.69,0.06c-0.07,0.06-0.11,0.13-0.1,0.21l0.04,7.1l-5.88-2.89c-0.22-0.11-0.27-0.31-0.11-0.46
			c0.02-0.02,0.06-0.04,0.09-0.06l0.88-0.49c0.21-0.12,0.24-0.33,0.07-0.47c-0.01-0.01-0.02-0.02-0.03-0.03l-0.86-0.59
			C10.84,16.83,10.5,16.81,10.25,16.94z"/>
		<path class="st9" d="M15.84,14.05l-4.43,2.29c-0.17,0.09-0.21,0.26-0.08,0.37c0,0.01,0.01,0.01,0.02,0.02l1.07,0.82
			c0.12,0.09,0.32,0.1,0.46,0.02l1.01-0.59c0.15-0.09,0.38-0.08,0.52,0.03c0.06,0.05,0.09,0.11,0.09,0.17l-0.08,1.64
			c-0.01,0.14-0.17,0.24-0.37,0.24c-0.08,0-0.16-0.02-0.22-0.06l-0.49-0.3c-0.15-0.09-0.39-0.08-0.52,0.02l0,0l-0.24,0.2
			c-0.13,0.11-0.11,0.27,0.05,0.36c0,0,0.01,0.01,0.02,0.01l3.07,1.54c0.18,0.09,0.42,0.07,0.56-0.05c0.05-0.05,0.08-0.1,0.08-0.17
			v-5.06c0-0.14-0.17-0.26-0.37-0.26c-0.09,0-0.17,0.02-0.24,0.06l-2.49,1.4c-0.14,0.08-0.35,0.07-0.47-0.03
			c0,0-0.01-0.01-0.01-0.01l0,0c-0.12-0.12-0.08-0.28,0.08-0.37l3.51-1.81c0.14-0.08,0.19-0.21,0.11-0.32l-0.05-0.07
			c-0.09-0.13-0.32-0.18-0.5-0.12C15.88,14.03,15.86,14.04,15.84,14.05z"/>
		<path class="st9" d="M17.25,13.35l1.14-0.58c0.14-0.07,0.35-0.05,0.45,0.04c0.04,0.04,0.06,0.09,0.06,0.13v1.2
			c0,0.12-0.14,0.22-0.32,0.22c-0.07,0-0.14-0.02-0.2-0.05l-1.14-0.6c-0.15-0.08-0.17-0.22-0.06-0.32
			C17.2,13.37,17.22,13.36,17.25,13.35z"/>
	</g>
</g>
<g>
	<rect x="17.32" y="19.9" class="st10" width="40.41" height="13.47"/>
	<path class="st11" d="M25.58,24.09l-1.35-3.43c-0.01-0.03-0.03-0.05-0.05-0.08c-0.02-0.03-0.05-0.05-0.08-0.06l-0.28-0.12v-0.19
		h1.41v0.19l-0.45,0.16l0.96,2.45l0.1,0.35h0.04l1.05-2.79l-0.45-0.17v-0.19h1.19v0.19l-0.27,0.13c-0.03,0.01-0.06,0.03-0.08,0.06
		c-0.02,0.03-0.04,0.05-0.05,0.08l-1.09,2.79l-0.3,0.63H25.58z"/>
	<path class="st11" d="M28.57,24.09c-0.17,0-0.32-0.04-0.44-0.11c-0.12-0.08-0.22-0.18-0.28-0.3c-0.07-0.12-0.1-0.25-0.1-0.39
		c0-0.18,0.05-0.34,0.14-0.46c0.09-0.12,0.21-0.23,0.35-0.3c0.14-0.08,0.29-0.13,0.45-0.16s0.3-0.05,0.44-0.05
		c0.03,0,0.07,0,0.13,0.01s0.12,0.01,0.18,0.02c0.06,0.01,0.1,0.01,0.13,0.01l0-0.39c0-0.2-0.05-0.34-0.15-0.42
		c-0.1-0.08-0.23-0.11-0.39-0.11c-0.09,0-0.18,0.02-0.27,0.05c-0.09,0.03-0.18,0.07-0.26,0.12c-0.08,0.05-0.16,0.09-0.23,0.14
		c-0.07,0.05-0.13,0.09-0.18,0.12h-0.11l-0.02-0.52c0.1-0.04,0.21-0.08,0.32-0.11c0.11-0.04,0.22-0.07,0.35-0.09
		c0.13-0.02,0.27-0.04,0.43-0.04c0.17,0,0.34,0.03,0.5,0.08c0.16,0.05,0.29,0.14,0.39,0.27c0.1,0.13,0.15,0.32,0.15,0.57l-0.01,1.48
		c0,0.07,0.03,0.12,0.08,0.16c0.05,0.04,0.11,0.06,0.17,0.06c0.04,0,0.08-0.01,0.13-0.03s0.09-0.04,0.13-0.06h0.04v0.22
		c-0.03,0.02-0.08,0.06-0.15,0.09c-0.06,0.04-0.13,0.07-0.2,0.1c-0.07,0.03-0.13,0.04-0.19,0.04c-0.17,0-0.29-0.04-0.37-0.12
		c-0.08-0.08-0.12-0.2-0.12-0.37h-0.03c-0.1,0.14-0.21,0.24-0.33,0.31s-0.24,0.12-0.36,0.14C28.77,24.08,28.67,24.09,28.57,24.09z
		 M28.84,23.7c0.12,0,0.25-0.02,0.39-0.07c0.14-0.05,0.26-0.13,0.33-0.23v-0.81c-0.25,0-0.46,0.02-0.65,0.05
		c-0.19,0.03-0.33,0.09-0.44,0.17s-0.16,0.21-0.16,0.38c0,0.13,0.03,0.24,0.08,0.31s0.12,0.13,0.2,0.16
		C28.68,23.69,28.76,23.7,28.84,23.7z"/>
	<path class="st11" d="M30.87,24.03v-0.19l0.4-0.11c0.03-0.01,0.06-0.02,0.08-0.04s0.03-0.05,0.03-0.09v-3.16
		c0-0.04-0.01-0.07-0.04-0.09c-0.02-0.02-0.05-0.04-0.08-0.05l-0.41-0.15v-0.19l1.06-0.05v3.69c0,0.04,0.01,0.07,0.03,0.09
		c0.02,0.02,0.05,0.04,0.08,0.04l0.39,0.11v0.19H30.87z"/>
	<path class="st11" d="M32.81,24.03v-0.19l0.4-0.11c0.03-0.01,0.06-0.02,0.08-0.04c0.02-0.02,0.03-0.05,0.03-0.09v-1.86
		c0-0.04-0.01-0.07-0.03-0.09c-0.02-0.02-0.05-0.04-0.09-0.05l-0.39-0.13v-0.19l1.04-0.14v2.46c0,0.04,0.01,0.07,0.03,0.09
		c0.02,0.02,0.04,0.04,0.07,0.04l0.4,0.11v0.19H32.81z M33.54,20.6c-0.07,0-0.13-0.01-0.19-0.04c-0.06-0.03-0.11-0.07-0.14-0.12
		s-0.05-0.11-0.05-0.19c0-0.11,0.04-0.2,0.11-0.26c0.08-0.06,0.17-0.09,0.27-0.09c0.12,0,0.22,0.03,0.29,0.09
		c0.07,0.06,0.11,0.14,0.11,0.25c0,0.08-0.02,0.14-0.05,0.2s-0.08,0.1-0.14,0.13C33.69,20.59,33.62,20.6,33.54,20.6z"/>
	<path class="st11" d="M36.67,21.17l-0.02,0.3h-0.99v1.86c0,0.08,0.03,0.15,0.1,0.2s0.14,0.09,0.22,0.11
		c0.08,0.02,0.16,0.03,0.21,0.03c0.06,0,0.13-0.01,0.22-0.03c0.08-0.02,0.14-0.04,0.18-0.06h0.09v0.22
		c-0.03,0.02-0.09,0.05-0.17,0.1c-0.08,0.04-0.18,0.08-0.29,0.12c-0.11,0.04-0.22,0.05-0.32,0.05c-0.14,0-0.26-0.02-0.38-0.07
		c-0.12-0.05-0.21-0.11-0.28-0.19c-0.07-0.08-0.11-0.19-0.11-0.31v-2.04h-0.46v-0.25c0.1-0.02,0.19-0.03,0.26-0.05
		s0.13-0.06,0.18-0.11c0.04-0.06,0.07-0.14,0.08-0.27l0.03-0.39l0.45-0.09v0.85H36.67z"/>
	<path class="st11" d="M37.92,24.09c-0.17,0-0.32-0.04-0.44-0.11c-0.12-0.08-0.22-0.18-0.28-0.3c-0.07-0.12-0.1-0.25-0.1-0.39
		c0-0.18,0.05-0.34,0.14-0.46c0.09-0.12,0.21-0.23,0.35-0.3c0.14-0.08,0.29-0.13,0.45-0.16s0.3-0.05,0.44-0.05
		c0.03,0,0.07,0,0.13,0.01c0.06,0.01,0.12,0.01,0.18,0.02c0.06,0.01,0.1,0.01,0.12,0.01l0-0.39c0-0.2-0.05-0.34-0.15-0.42
		c-0.1-0.08-0.23-0.11-0.39-0.11c-0.09,0-0.18,0.02-0.27,0.05c-0.09,0.03-0.18,0.07-0.26,0.12c-0.08,0.05-0.16,0.09-0.23,0.14
		c-0.07,0.05-0.13,0.09-0.18,0.12h-0.11l-0.02-0.52c0.1-0.04,0.21-0.08,0.32-0.11c0.11-0.04,0.23-0.07,0.35-0.09
		c0.13-0.02,0.27-0.04,0.43-0.04c0.17,0,0.34,0.03,0.5,0.08c0.16,0.05,0.29,0.14,0.39,0.27s0.15,0.32,0.15,0.57l-0.01,1.48
		c0,0.07,0.03,0.12,0.08,0.16c0.05,0.04,0.11,0.06,0.18,0.06c0.04,0,0.08-0.01,0.12-0.03c0.05-0.02,0.09-0.04,0.13-0.06H40v0.22
		c-0.03,0.02-0.08,0.06-0.15,0.09c-0.07,0.04-0.13,0.07-0.21,0.1c-0.07,0.03-0.13,0.04-0.19,0.04c-0.17,0-0.29-0.04-0.38-0.12
		c-0.08-0.08-0.12-0.2-0.12-0.37h-0.03c-0.1,0.14-0.21,0.24-0.33,0.31c-0.12,0.07-0.24,0.12-0.36,0.14
		C38.12,24.08,38.02,24.09,37.92,24.09z M38.19,23.7c0.12,0,0.25-0.02,0.39-0.07s0.26-0.13,0.33-0.23v-0.81
		c-0.25,0-0.46,0.02-0.65,0.05c-0.19,0.03-0.33,0.09-0.44,0.17c-0.1,0.09-0.16,0.21-0.16,0.38c0,0.13,0.03,0.24,0.08,0.31
		s0.12,0.13,0.2,0.16C38.03,23.69,38.11,23.7,38.19,23.7z"/>
	<path class="st11" d="M42.19,21.17l-0.02,0.3h-1v1.86c0,0.08,0.03,0.15,0.1,0.2c0.06,0.05,0.14,0.09,0.22,0.11
		c0.08,0.02,0.16,0.03,0.21,0.03c0.06,0,0.14-0.01,0.22-0.03c0.08-0.02,0.14-0.04,0.18-0.06h0.09v0.22
		c-0.03,0.02-0.09,0.05-0.17,0.1c-0.08,0.04-0.18,0.08-0.29,0.12c-0.11,0.04-0.22,0.05-0.32,0.05c-0.14,0-0.26-0.02-0.38-0.07
		s-0.21-0.11-0.28-0.19c-0.07-0.08-0.11-0.19-0.11-0.31v-2.04h-0.46v-0.25c0.1-0.02,0.19-0.03,0.26-0.05
		c0.08-0.02,0.13-0.06,0.18-0.11c0.04-0.06,0.07-0.14,0.08-0.27l0.03-0.39l0.45-0.09v0.85H42.19z"/>
	<path class="st11" d="M42.54,24.03v-0.19l0.4-0.11c0.03-0.01,0.06-0.02,0.08-0.04s0.03-0.05,0.03-0.09v-1.86
		c0-0.04-0.01-0.07-0.03-0.09c-0.02-0.02-0.05-0.04-0.08-0.05l-0.39-0.13v-0.19l1.04-0.14v2.46c0,0.04,0.01,0.07,0.03,0.09
		c0.02,0.02,0.04,0.04,0.07,0.04l0.4,0.11v0.19H42.54z M43.28,20.6c-0.07,0-0.13-0.01-0.19-0.04c-0.06-0.03-0.11-0.07-0.14-0.12
		c-0.04-0.05-0.05-0.11-0.05-0.19c0-0.11,0.04-0.2,0.11-0.26c0.08-0.06,0.17-0.09,0.27-0.09c0.12,0,0.22,0.03,0.29,0.09
		c0.07,0.06,0.11,0.14,0.11,0.25c0,0.08-0.02,0.14-0.05,0.2c-0.03,0.06-0.08,0.1-0.14,0.13S43.35,20.6,43.28,20.6z"/>
	<path class="st11" d="M45.92,24.1c-0.28,0-0.52-0.06-0.73-0.18c-0.21-0.12-0.37-0.29-0.49-0.52c-0.12-0.22-0.17-0.49-0.17-0.8
		c0-0.29,0.06-0.54,0.17-0.77c0.12-0.23,0.28-0.41,0.49-0.54c0.21-0.13,0.46-0.2,0.75-0.2c0.31,0,0.57,0.07,0.78,0.21
		c0.2,0.14,0.36,0.32,0.46,0.55s0.15,0.47,0.15,0.74c0,0.28-0.06,0.54-0.17,0.76c-0.11,0.23-0.28,0.41-0.49,0.54
		S46.21,24.1,45.92,24.1z M45.96,23.81c0.16,0,0.28-0.04,0.38-0.11c0.1-0.07,0.18-0.16,0.24-0.28c0.06-0.12,0.1-0.24,0.13-0.38
		c0.03-0.14,0.04-0.27,0.04-0.4c0-0.21-0.03-0.41-0.08-0.61s-0.14-0.35-0.27-0.47s-0.29-0.18-0.49-0.18c-0.15,0-0.28,0.04-0.38,0.11
		s-0.18,0.16-0.24,0.28s-0.1,0.24-0.13,0.37c-0.03,0.14-0.04,0.27-0.04,0.39c0,0.14,0.01,0.29,0.04,0.44
		c0.03,0.15,0.07,0.29,0.14,0.41c0.06,0.13,0.15,0.23,0.26,0.31S45.8,23.81,45.96,23.81z"/>
	<path class="st11" d="M47.85,24.03v-0.19l0.33-0.11c0.03-0.01,0.06-0.02,0.08-0.04s0.03-0.05,0.03-0.09v-1.88
		c0-0.04-0.01-0.07-0.03-0.09s-0.05-0.04-0.08-0.05l-0.31-0.13v-0.19l0.91-0.15v0.46h0.04c0.11-0.14,0.21-0.24,0.32-0.31
		c0.1-0.07,0.21-0.11,0.31-0.13s0.21-0.03,0.31-0.03c0.17,0,0.32,0.03,0.46,0.1c0.14,0.07,0.25,0.17,0.33,0.31
		c0.08,0.14,0.12,0.33,0.12,0.55v1.53c0,0.04,0.01,0.07,0.03,0.1s0.05,0.04,0.08,0.05l0.29,0.11v0.19h-1.31v-0.19l0.27-0.11
		c0.03-0.01,0.06-0.03,0.08-0.05s0.03-0.05,0.03-0.09v-1.3c0-0.17-0.01-0.31-0.04-0.43s-0.09-0.21-0.18-0.27s-0.22-0.09-0.4-0.09
		c-0.12,0-0.24,0.02-0.37,0.06c-0.13,0.04-0.24,0.11-0.32,0.22v1.83c0,0.04,0.01,0.07,0.03,0.09c0.02,0.02,0.05,0.04,0.08,0.04
		l0.25,0.11v0.19H47.85z"/>
	<path class="st11" d="M30.43,31.23v-0.2l0.41-0.13c0.03-0.01,0.05-0.02,0.07-0.04c0.02-0.02,0.03-0.05,0.03-0.09v-2.9
		c0-0.04-0.01-0.07-0.03-0.09s-0.04-0.03-0.07-0.04l-0.41-0.14v-0.19h2.98v0.95h-0.31l-0.1-0.53c-0.01-0.03-0.02-0.06-0.04-0.07
		c-0.02-0.02-0.04-0.03-0.07-0.03H31.5v1.39h0.86c0.04,0,0.06-0.01,0.08-0.03c0.02-0.02,0.03-0.04,0.03-0.07l0.1-0.43h0.25v1.37
		h-0.25l-0.1-0.42c-0.01-0.03-0.02-0.06-0.03-0.07c-0.02-0.02-0.04-0.03-0.08-0.03H31.5v1.31c0,0.04,0.01,0.07,0.03,0.09
		c0.02,0.02,0.04,0.04,0.07,0.04l0.43,0.13v0.2H30.43z"/>
	<path class="st11" d="M35.08,31.3c-0.28,0-0.52-0.06-0.73-0.18c-0.21-0.12-0.37-0.29-0.48-0.52c-0.12-0.22-0.17-0.49-0.17-0.8
		c0-0.29,0.06-0.54,0.17-0.77s0.28-0.41,0.49-0.54s0.46-0.2,0.75-0.2c0.31,0,0.57,0.07,0.78,0.21c0.2,0.14,0.36,0.32,0.46,0.55
		c0.1,0.23,0.15,0.47,0.15,0.74c0,0.28-0.06,0.54-0.17,0.76s-0.28,0.41-0.49,0.54S35.37,31.3,35.08,31.3z M35.12,31.01
		c0.15,0,0.28-0.04,0.38-0.11c0.1-0.07,0.18-0.16,0.24-0.28c0.06-0.12,0.1-0.24,0.13-0.38c0.02-0.14,0.04-0.27,0.04-0.4
		c0-0.21-0.03-0.41-0.08-0.61s-0.14-0.35-0.27-0.47s-0.29-0.18-0.49-0.18c-0.15,0-0.28,0.04-0.38,0.11
		c-0.1,0.07-0.18,0.16-0.24,0.28s-0.1,0.24-0.13,0.37c-0.03,0.14-0.04,0.27-0.04,0.39c0,0.14,0.01,0.29,0.04,0.44
		c0.03,0.15,0.07,0.29,0.14,0.41c0.06,0.13,0.15,0.23,0.26,0.31C34.82,30.97,34.96,31.01,35.12,31.01z"/>
	<path class="st11" d="M37.02,31.23v-0.19l0.33-0.11c0.03-0.01,0.05-0.02,0.08-0.04s0.03-0.05,0.03-0.09v-1.85
		c0-0.05-0.01-0.08-0.04-0.11s-0.05-0.04-0.08-0.06L37,28.65v-0.19l0.94-0.15v0.62h0.03c0.11-0.15,0.21-0.28,0.3-0.37
		c0.09-0.09,0.19-0.16,0.28-0.21c0.09-0.04,0.19-0.06,0.29-0.06c0.09,0,0.17,0.01,0.26,0.03c0.09,0.02,0.17,0.06,0.24,0.12v0.66
		h-0.33l-0.08-0.21c-0.02-0.04-0.06-0.08-0.12-0.11c-0.06-0.03-0.12-0.04-0.18-0.04c-0.1,0-0.19,0.02-0.27,0.07s-0.15,0.1-0.21,0.17
		c-0.06,0.07-0.12,0.14-0.18,0.2v1.61c0,0.07,0.04,0.11,0.11,0.13l0.41,0.11v0.19H37.02z"/>
	<path class="st11" d="M41.63,31.23v-0.19l0.27-0.1c0.03-0.01,0.06-0.03,0.08-0.05S42,30.83,42,30.79v-1.31
		c0-0.17-0.01-0.31-0.04-0.43s-0.09-0.21-0.17-0.27c-0.08-0.06-0.21-0.09-0.38-0.09c-0.11,0-0.23,0.02-0.36,0.06
		c-0.12,0.04-0.23,0.11-0.31,0.22v1.83c0,0.04,0.01,0.07,0.03,0.08c0.02,0.02,0.05,0.03,0.07,0.05l0.25,0.11v0.19h-1.31v-0.19
		l0.33-0.1c0.03-0.01,0.05-0.02,0.07-0.05c0.02-0.02,0.03-0.05,0.03-0.09v-1.88c0-0.04-0.01-0.07-0.03-0.09s-0.05-0.04-0.08-0.05
		l-0.31-0.13v-0.19l0.91-0.15v0.46h0.04c0.15-0.2,0.31-0.33,0.46-0.39c0.15-0.06,0.3-0.08,0.45-0.08c0.12,0,0.24,0.02,0.35,0.05
		s0.21,0.09,0.29,0.18c0.08,0.08,0.15,0.2,0.2,0.34l0.05,0.04v1.9c0,0.04,0.01,0.07,0.03,0.09c0.02,0.02,0.05,0.03,0.07,0.05
		l0.24,0.11v0.19H41.63z M43.41,31.23v-0.19l0.27-0.1c0.03-0.01,0.06-0.03,0.08-0.05s0.03-0.05,0.03-0.09v-1.31
		c0-0.17-0.01-0.31-0.04-0.43s-0.09-0.21-0.17-0.27c-0.08-0.06-0.21-0.09-0.38-0.09c-0.11,0-0.23,0.02-0.37,0.07
		c-0.13,0.04-0.24,0.13-0.32,0.25l-0.07-0.13c0.13-0.19,0.26-0.32,0.38-0.41c0.12-0.08,0.22-0.14,0.33-0.16
		c0.1-0.02,0.2-0.03,0.29-0.03c0.16,0,0.31,0.03,0.45,0.1c0.14,0.07,0.24,0.17,0.33,0.31c0.08,0.14,0.12,0.33,0.12,0.55v1.54
		c0,0.04,0.01,0.07,0.03,0.09c0.02,0.02,0.05,0.04,0.07,0.05l0.29,0.11v0.19H43.41z"/>
</g>
<g>
	<path class="st12" d="M30.82,54.83l-0.01-0.6h0.2l0.07,0.32c0,0.01,0.01,0.03,0.03,0.04c0.02,0.01,0.03,0.03,0.05,0.03
		c0.04,0.03,0.09,0.05,0.14,0.07c0.05,0.02,0.11,0.04,0.17,0.06c0.06,0.01,0.12,0.02,0.18,0.02c0.18,0,0.32-0.04,0.42-0.11
		s0.15-0.17,0.15-0.29c0-0.09-0.03-0.17-0.09-0.23s-0.14-0.11-0.25-0.15c-0.1-0.04-0.2-0.07-0.29-0.1s-0.19-0.06-0.28-0.09
		c-0.14-0.05-0.25-0.12-0.33-0.22c-0.08-0.09-0.12-0.21-0.12-0.34c0-0.12,0.04-0.23,0.11-0.32c0.07-0.09,0.17-0.17,0.3-0.22
		c0.13-0.05,0.27-0.08,0.43-0.08c0.09,0,0.18,0,0.27,0.02c0.09,0.01,0.17,0.02,0.25,0.04c0.08,0.02,0.15,0.03,0.22,0.05v0.57h-0.2
		L32.18,53c0-0.01-0.01-0.03-0.03-0.04c-0.02-0.01-0.03-0.02-0.05-0.03c-0.03-0.02-0.06-0.03-0.1-0.05
		c-0.04-0.01-0.08-0.03-0.13-0.04c-0.05-0.01-0.1-0.01-0.15-0.01c-0.16,0-0.29,0.03-0.38,0.09s-0.14,0.14-0.14,0.23
		c0,0.08,0.02,0.16,0.07,0.23c0.05,0.07,0.14,0.13,0.28,0.18c0.09,0.03,0.18,0.06,0.27,0.09c0.09,0.03,0.19,0.06,0.29,0.1
		c0.08,0.03,0.15,0.07,0.22,0.11s0.13,0.11,0.17,0.18s0.07,0.17,0.07,0.27c0,0.11-0.03,0.22-0.1,0.32c-0.07,0.1-0.17,0.19-0.31,0.25
		s-0.33,0.1-0.56,0.1c-0.08,0-0.16-0.01-0.25-0.02s-0.18-0.03-0.27-0.05C31,54.88,30.91,54.85,30.82,54.83z"/>
	<path class="st12" d="M33.75,54.95c-0.11,0-0.21-0.02-0.3-0.06c-0.09-0.04-0.16-0.1-0.21-0.18c-0.05-0.08-0.08-0.19-0.08-0.33
		v-0.82c0-0.02-0.01-0.04-0.02-0.05s-0.03-0.02-0.05-0.03l-0.2-0.08V53.3l0.62-0.08v1.04c0,0.1,0.01,0.18,0.03,0.25
		c0.02,0.07,0.06,0.12,0.11,0.16c0.06,0.04,0.14,0.05,0.25,0.05c0.1,0,0.19-0.01,0.27-0.04s0.13-0.07,0.18-0.12v-0.99
		c0-0.02-0.01-0.04-0.02-0.05c-0.01-0.01-0.03-0.02-0.06-0.03l-0.2-0.08V53.3l0.62-0.09v1.38c0,0.02,0.01,0.04,0.02,0.05
		c0.01,0.01,0.03,0.02,0.05,0.03l0.2,0.08v0.11l-0.58,0.09h-0.01v-0.28h-0.02c-0.08,0.09-0.17,0.17-0.26,0.21
		C34,54.93,33.89,54.95,33.75,54.95z"/>
	<path class="st12" d="M36.21,54.96c-0.13,0-0.27-0.01-0.4-0.04c-0.13-0.02-0.25-0.06-0.36-0.11v-1.99c0-0.02-0.01-0.04-0.02-0.05
		c-0.02-0.01-0.03-0.02-0.05-0.03l-0.22-0.09v-0.11l0.64-0.03v0.89v0.09c0.07-0.09,0.14-0.16,0.22-0.2s0.15-0.07,0.22-0.08
		c0.07-0.01,0.12-0.02,0.17-0.02c0.15,0,0.29,0.04,0.4,0.11c0.11,0.07,0.19,0.17,0.25,0.29c0.06,0.12,0.09,0.26,0.09,0.42
		c0,0.17-0.04,0.33-0.11,0.47c-0.07,0.14-0.18,0.26-0.31,0.34C36.58,54.92,36.41,54.96,36.21,54.96z M36.19,54.79
		c0.13,0,0.24-0.03,0.33-0.09c0.08-0.06,0.15-0.14,0.19-0.25c0.04-0.1,0.06-0.21,0.06-0.33c0-0.13-0.02-0.25-0.06-0.35
		c-0.04-0.1-0.1-0.19-0.18-0.25c-0.08-0.06-0.19-0.09-0.32-0.09c-0.06,0-0.13,0.01-0.21,0.04c-0.08,0.03-0.15,0.07-0.2,0.14v1.04
		c0.03,0.03,0.07,0.05,0.12,0.08c0.05,0.02,0.1,0.04,0.15,0.05C36.12,54.78,36.16,54.79,36.19,54.79z"/>
	<path class="st12" d="M38.67,54.92v-0.11l0.17-0.06c0.02-0.01,0.04-0.02,0.05-0.03c0.01-0.01,0.02-0.03,0.02-0.05V53.9
		c0-0.1-0.01-0.18-0.03-0.25c-0.02-0.07-0.06-0.12-0.11-0.16s-0.14-0.05-0.25-0.05c-0.07,0-0.15,0.01-0.23,0.03s-0.15,0.06-0.2,0.13
		v1.07c0,0.02,0.01,0.04,0.02,0.05s0.03,0.02,0.05,0.03l0.16,0.06v0.11h-0.85v-0.11l0.21-0.06c0.02,0,0.03-0.01,0.05-0.03
		c0.01-0.01,0.02-0.03,0.02-0.05v-1.1c0-0.02-0.01-0.04-0.02-0.05c-0.01-0.01-0.03-0.02-0.05-0.03l-0.2-0.08V53.3l0.59-0.08v0.27
		h0.02c0.1-0.12,0.2-0.2,0.3-0.23s0.2-0.05,0.29-0.05c0.08,0,0.16,0.01,0.23,0.03c0.07,0.02,0.14,0.05,0.19,0.1
		c0.06,0.05,0.1,0.11,0.13,0.2l0.03,0.02v1.11c0,0.02,0.01,0.04,0.02,0.05s0.03,0.02,0.05,0.03l0.16,0.06v0.11H38.67z M39.83,54.92
		v-0.11l0.18-0.06c0.02-0.01,0.04-0.02,0.05-0.03c0.01-0.01,0.02-0.03,0.02-0.05V53.9c0-0.1-0.01-0.18-0.03-0.25
		c-0.02-0.07-0.06-0.12-0.11-0.16c-0.06-0.04-0.14-0.05-0.25-0.05c-0.07,0-0.15,0.01-0.24,0.04c-0.09,0.03-0.16,0.08-0.21,0.15
		l-0.05-0.07c0.09-0.11,0.17-0.19,0.24-0.24s0.15-0.08,0.21-0.09s0.13-0.02,0.19-0.02c0.11,0,0.2,0.02,0.29,0.06s0.16,0.1,0.21,0.18
		c0.05,0.08,0.08,0.19,0.08,0.32v0.9c0,0.02,0.01,0.04,0.02,0.05c0.01,0.01,0.03,0.02,0.05,0.03l0.19,0.06v0.11H39.83z"/>
	<path class="st12" d="M40.95,54.92v-0.11l0.26-0.06c0.02-0.01,0.04-0.01,0.05-0.03c0.01-0.01,0.02-0.03,0.02-0.05v-1.09
		c0-0.02-0.01-0.04-0.02-0.05c-0.01-0.01-0.03-0.02-0.06-0.03l-0.25-0.08v-0.11l0.67-0.08v1.44c0,0.02,0.01,0.04,0.02,0.05
		c0.01,0.01,0.03,0.02,0.05,0.03l0.26,0.06v0.11H40.95z M41.42,52.92c-0.04,0-0.08-0.01-0.12-0.02c-0.04-0.02-0.07-0.04-0.09-0.07
		c-0.02-0.03-0.04-0.07-0.04-0.11c0-0.07,0.03-0.12,0.07-0.15c0.05-0.04,0.11-0.05,0.17-0.05c0.08,0,0.14,0.02,0.19,0.05
		s0.07,0.08,0.07,0.14c0,0.04-0.01,0.08-0.03,0.12s-0.05,0.06-0.09,0.07C41.52,52.91,41.47,52.92,41.42,52.92z"/>
	<path class="st12" d="M43.45,53.25l-0.01,0.18H42.8v1.09c0,0.05,0.02,0.09,0.06,0.12c0.04,0.03,0.09,0.05,0.14,0.06
		s0.1,0.02,0.14,0.02c0.04,0,0.09-0.01,0.14-0.02s0.09-0.02,0.12-0.03h0.06v0.13c-0.02,0.01-0.06,0.03-0.11,0.06
		c-0.05,0.03-0.12,0.05-0.19,0.07c-0.07,0.02-0.14,0.03-0.21,0.03c-0.09,0-0.17-0.01-0.25-0.04c-0.08-0.03-0.14-0.06-0.18-0.11
		c-0.05-0.05-0.07-0.11-0.07-0.18v-1.19h-0.3v-0.14c0.07-0.01,0.12-0.02,0.17-0.03c0.05-0.01,0.09-0.03,0.12-0.06
		c0.03-0.03,0.04-0.08,0.05-0.16l0.02-0.23l0.29-0.05v0.5H43.45z"/>
</g>
<g>
</g>
<g>
</g>
<g>
</g>
<g>
</g>
<g>
</g>
<g>
</g>
</svg>
